<?xml version="1.0" encoding="UTF-8"?>
<svg version="1.1" xmlns="http://www.w3.org/2000/svg" width="4537" height="3866">
<path d="M0 0 C3.78721271 0.00570195 7.57435526 0.00230267 11.36156559 -0.00343323 C80.74263107 -0.09308835 80.74263107 -0.09308835 106.18530273 23.81005859 C146.15607798 64.18869889 151.01571877 129.49901751 152.54467773 182.69287109 C152.58602443 184.08553497 152.62752102 185.47819441 152.66915894 186.87084961 C153.57442476 217.29880656 154.08982152 247.73017996 154.42681885 278.16925049 C154.47296354 282.33282603 154.52136514 286.49637215 154.57029659 290.65991575 C155.35709191 357.95404538 155.66194683 425.25171486 155.96611714 492.54937926 C155.98234977 496.1371439 155.99866191 499.72490817 156.01498985 503.31267238 C156.47263803 603.99013316 156.76868674 704.66740998 156.9612934 805.34569795 C156.97779908 813.95797324 156.99471107 822.57024768 157.0118103 831.18252182 C157.17124933 911.55179637 157.3105839 991.92110151 158.38044702 1963.99215258 C158.39176952 1976.18207235 158.40309712 1988.3719921 158.41442912 2000.56191186 C158.41577205 2002.00653165 158.41711491 2003.45115144 158.4184577 2004.89577124 C158.46154971 2051.25526158 158.50530661 2097.61475126 158.54960566 2143.97424047 C158.55181997 2146.29157835 158.55403401 2148.60891623 158.55624797 2150.92625412 C158.56812236 2163.35501989 158.57999917 2175.78378567 158.59187826 2188.21255144 C158.66677066 2266.57168535 158.74136222 2344.93081956 159.04467773 2677.81787109 C159.04536926 2678.59696605 159.04606079 2679.37606102 159.04677327 2680.17876491 C159.1145993 2756.59932342 159.18115442 2833.01988303 159.54427463 3441.26717063 C159.54467219 3444.00235153 159.54508321 3446.73753242 159.54549932 3449.47271332 C159.54617247 3453.89776387 159.54682437 3458.32281441 159.54745971 3462.74786496 C159.54768887 3464.33401588 159.54792251 3465.92016681 159.54816224 3467.50631773 C159.56655224 3590.3810079 159.51604617 3713.25568666 159.48217773 3836.13037109 C-35.54782227 3836.13037109 -230.57782227 3836.13037109 -431.51782227 3836.13037109 C-431.55540649 3763.09865601 -431.55540649 3763.09865601 -431.59375 3688.59155273 C-431.61751169 3642.78683287 -431.61751169 3642.78683287 -431.64149748 3596.98211313 C-431.64308856 3593.95854231 -431.64467959 3590.9349715 -431.64626996 3587.91140069 C-431.68346775 3517.19300322 -431.72196658 3446.47460653 -431.76148987 3375.75621033 C-431.76277439 3373.45719797 -431.76405892 3371.15818561 -431.76534345 3368.85917326 C-431.79231997 3320.5847742 -431.81949124 3272.31037525 -431.846887 3224.03597643 C-431.86065197 3199.78019432 -431.87437957 3175.52441218 -431.88807184 3151.26863003 C-431.89013727 3147.61011377 -431.89220376 3143.9515975 -431.89427031 3140.29308124 C-431.92602053 3084.06723467 -431.95697768 3027.84138781 -431.9855957 2971.61553955 C-431.98620936 2970.40990926 -431.98682303 2969.20427897 -431.98745528 2967.96211443 C-431.99734217 2948.52820888 -432.00716149 2929.0943033 -432.01697181 2909.66039771 C-432.04528676 2853.57154553 -432.07411504 2797.48269381 -432.10622501 2741.39384365 C-432.10688741 2740.2363603 -432.10754981 2739.07887695 -432.10823228 2737.88631835 C-432.122795 2712.45487007 -432.13761377 2687.02342195 -432.1526738 2661.59197396 C-432.15873224 2651.35366358 -432.16475395 2641.11535318 -432.17076302 2630.87704277 C-432.1714215 2629.75662023 -432.17207999 2628.6361977 -432.17275842 2627.48182297 C-432.19383112 2591.59536422 -432.21193363 2555.70890475 -432.22842263 2519.82244363 C-432.24509583 2483.56544694 -432.26479565 2447.30845319 -432.28849658 2411.05146039 C-432.2917978 2406.00022707 -432.29506559 2400.94899374 -432.29831314 2395.89776039 C-432.29895077 2394.90788373 -432.29958839 2393.91800707 -432.30024534 2392.89813415 C-432.30951521 2378.38241368 -432.3161603 2363.86669372 -432.32124138 2349.35097122 C-432.3488503 2272.01640318 -432.40626453 2194.69039365 -433.48681953 2117.36164268 C-433.52827545 2114.37805408 -433.56858293 2111.39445038 -433.60890695 2108.41084631 C-433.65632621 2104.90991197 -433.70450335 2101.40898825 -433.75286007 2097.90806675 C-433.76961347 2096.69294985 -433.78636687 2095.47783295 -433.80362794 2094.22589433 C-435.17015209 1997.7855828 -437.85769714 1904.13647104 -516.51782227 1681.13037109 C-517.18974609 1679.78483154 -517.18974609 1679.78483154 -517.87524414 1678.41210938 C-533.79768722 1646.66037324 -554.20915574 1616.93544501 -578.18188477 1590.71240234 C-580.05835884 1588.63823953 -581.88850491 1586.53858824 -583.71313477 1584.41943359 C-587.87587074 1579.65429901 -592.29292978 1575.16372892 -596.76782227 1570.69287109 C-597.60684082 1569.85393311 -598.44585938 1569.01499512 -599.31030273 1568.15063477 C-604.40602892 1563.10166288 -609.54442112 1558.35641223 -615.20532227 1553.94677734 C-617.45375769 1552.18069208 -619.54187199 1550.31817939 -621.64282227 1548.38037109 C-628.56307843 1542.17303653 -636.07738789 1536.69084937 -643.51782227 1531.13037109 C-644.24710938 1530.58155273 -644.97639648 1530.03273438 -645.7277832 1529.46728516 C-657.19847372 1520.86298763 -669.05445181 1513.21728859 -681.51782227 1506.13037109 C-682.28143066 1505.69096191 -683.04503906 1505.25155273 -683.83178711 1504.79882812 C-761.32142801 1460.58838491 -863.9465007 1462.66395079 -1007.02795792 1461.75341797 C-1011.81226071 1461.75553475 -1016.59655617 1461.75424363 -1021.38085872 1461.75213218 C-1103.58186079 1461.71976836 -1185.75608695 1463.06014496 -1267.94005263 1464.63573003 C-1356.08693505 1466.32475045 -1356.08693505 1466.32475045 -1393.58551574 1466.37624359 C-1395.84488164 1466.38026491 -1398.10421183 1466.38770996 -1400.36356544 1466.39605713 C-1464.93944823 1466.6064938 -1464.93944823 1466.6064938 -1487.51782227 1445.13037109 C-1489.85580301 1442.28413366 -1491.73524812 1439.34826468 -1493.51782227 1436.13037109 C-1493.89422852 1435.49615234 -1494.27063477 1434.86193359 -1494.65844727 1434.20849609 C-1503.75567437 1417.77917551 -1502.8713734 1396.34312993 -1502.83349609 1378.12133789 C-1502.83034385 1374.96448928 -1502.8538651 1371.80858868 -1502.87915039 1368.65185547 C-1502.95191642 1345.37409308 -1502.22520276 1318.24720889 -1485.64282227 1300.07568359 C-1483.69165353 1298.2425291 -1481.70392086 1296.67397491 -1479.51782227 1295.13037109 C-1478.87200195 1294.65857422 -1478.22618164 1294.18677734 -1477.56079102 1293.70068359 C-1471.84403805 1290.21912953 -1465.89242536 1289.41717506 -1459.37719727 1288.58349609 C-1458.40110504 1288.45551636 -1457.42501282 1288.32753662 -1456.41934204 1288.19567871 C-1446.92852576 1286.99035533 -1437.44028956 1286.20658388 -1427.89282227 1285.63037109 C-1426.93277283 1285.57100372 -1425.97272339 1285.51163635 -1424.98358154 1285.45046997 C-1328.02239527 1279.54633193 -1230.65223518 1279.16103379 -1133.54717064 1278.49493122 C-1129.1915031 1278.46469653 -1124.83585877 1278.43164738 -1120.48021317 1278.39842033 C-1117.55512685 1278.37745993 -1114.63004233 1278.36112174 -1111.70492554 1278.34510803 C-1102.17388183 1278.28058496 -1092.66056737 1278.07028581 -1083.13745117 1277.66577148 C-1082.19032446 1277.62590087 -1081.24319775 1277.58603025 -1080.26737022 1277.54495144 C-1060.18656221 1276.62700636 -1060.18656221 1276.62700636 -1043.11547852 1266.90380859 C-1038.73207071 1262.03811875 -1033.93845947 1255.77490692 -1033.33032227 1249.06005859 C-1034.04625388 1241.21464129 -1037.54441289 1234.52855323 -1042.70532227 1228.63037109 C-1064.41957153 1217.04943815 -1097.11301888 1221.99181626 -1121.00136888 1222.04362357 C-1125.47976548 1222.05216705 -1129.95816618 1222.05467041 -1134.43656921 1222.05787659 C-1142.18124912 1222.06413711 -1149.9259182 1222.07385449 -1157.67059135 1222.08577156 C-1168.91883898 1222.10289238 -1180.16708404 1222.1123442 -1191.41534186 1222.1196503 C-1209.73881177 1222.13156719 -1228.06227754 1222.14649661 -1246.38574219 1222.16479492 C-1247.47946249 1222.16588504 -1248.57318279 1222.16697517 -1249.70004613 1222.16809832 C-1265.16646416 1222.18365626 -1280.63287704 1222.20224944 -1296.09929008 1222.2220962 C-1297.72850087 1222.22418617 -1297.72850087 1222.22418617 -1299.390625 1222.22631836 C-1300.47540748 1222.22771189 -1301.56018996 1222.22910542 -1302.67784464 1222.23054118 C-1320.90925505 1222.25375451 -1339.1406622 1222.26895634 -1357.37208515 1222.27787775 C-1367.56729652 1222.28314896 -1377.76247444 1222.29225704 -1387.95767021 1222.31126595 C-1556.10832981 1222.61864749 -1556.10832981 1222.61864749 -1582.83032227 1197.19287109 C-1591.88698711 1187.69798053 -1594.68745649 1177.36020548 -1596.14282227 1164.56787109 C-1596.32458008 1163.1128418 -1596.32458008 1163.1128418 -1596.51000977 1161.62841797 C-1598.16884543 1147.77173092 -1598.70456796 1133.93601873 -1598.703125 1119.99414062 C-1598.70532092 1117.63181761 -1598.72360607 1115.26995667 -1598.74243164 1112.90771484 C-1598.82503676 1091.08848734 -1596.52371054 1068.08454044 -1581.00219727 1051.39599609 C-1529.65173318 1004.56695651 -1396.6476955 1021.58752833 -1209.69181633 1017.946661 C-1206.14761111 1017.91925921 -1202.60341468 1017.89091039 -1199.05921936 1017.86225891 C-1196.6651307 1017.84297674 -1194.27104195 1017.82370493 -1191.87695312 1017.80444336 C-1190.68417409 1017.79481725 -1189.49139505 1017.78519114 -1188.2624712 1017.77527332 C-1182.39254281 1017.72865348 -1176.52263098 1017.68565453 -1170.65261841 1017.65109253 C-1146.40550149 1017.50796916 -1122.18531206 1017.18648494 -1097.95532227 1016.22021484 C-1096.45887177 1016.16270648 -1096.45887177 1016.16270648 -1094.93218994 1016.10403633 C-1084.82954351 1015.70726703 -1074.74804591 1015.16585255 -1064.67797852 1014.24975586 C-1063.48959633 1014.15082865 -1063.48959633 1014.15082865 -1062.27720642 1014.04990292 C-1055.67025657 1013.39511637 -1048.13035943 1012.51612263 -1043.64282227 1007.19287109 C-1038.49299415 998.68134962 -1037.52665931 988.73400738 -1039.51782227 979.13037109 C-1041.33459074 973.5726705 -1043.25230765 970.84386569 -1048.51782227 968.13037109 C-1080.76019063 961.16945217 -1116.8263402 964.01854023 -1149.75039369 963.61912668 C-1152.25268401 963.58867207 -1154.75496198 963.55731865 -1157.25723982 963.52585697 C-1194.59282035 963.06062065 -1231.92787712 962.93326734 -1269.26596357 962.86505076 C-1278.73005769 962.84749287 -1288.19413597 962.82422137 -1297.65821669 962.80063647 C-1314.59253238 962.75849759 -1331.52685317 962.71924735 -1348.46118164 962.68261719 C-1349.46053615 962.68045438 -1350.45989065 962.67829158 -1351.48952863 962.67606324 C-1360.61723038 962.6563376 -1369.74493258 962.63681621 -1378.87263489 962.61734772 C-1384.9757183 962.60432688 -1391.07880159 962.59125363 -1397.18188477 962.578125 C-1398.68805069 962.5748867 -1398.68805069 962.5748867 -1400.22464421 962.57158297 C-1417.14820713 962.5350914 -1434.07176026 962.49513944 -1450.99530959 962.45282221 C-1460.40027358 962.4294475 -1469.80523496 962.40778939 -1479.21021271 962.39073181 C-1513.25777092 962.32849569 -1547.30168548 962.25287027 -1581.3449707 961.66748047 C-1582.51677147 961.64777726 -1583.68857224 961.62807405 -1584.89588213 961.60777378 C-1657.86158138 960.34410495 -1657.86158138 960.34410495 -1674.83032227 944.63037109 C-1697.75280655 919.7129908 -1700.7551159 884.34435305 -1699.51782227 852.13037109 C-1697.89157131 830.18507857 -1690.78128758 806.59544811 -1674.51782227 791.13037109 C-1673.93258789 790.54900391 -1673.34735352 789.96763672 -1672.74438477 789.36865234 C-1657.37836402 775.04867526 -1632.72585106 773.28344541 -1612.70996094 771.67724609 C-1610.61039905 771.50779848 -1608.51248073 771.32394535 -1606.41430664 771.13818359 C-1582.22703218 769.07035592 -1557.97022219 768.96799469 -1533.71342707 768.9633162 C-1530.32923972 768.9620656 -1526.94505889 768.95760306 -1523.56087422 768.95333689 C-1513.48170434 768.9409973 -1503.40255163 768.93965045 -1493.3233757 768.94189453 C-1488.50884976 768.9429459 -1483.69432566 768.94231498 -1478.87979978 768.94125164 C-1427.22908955 768.93103292 -1375.59829621 769.24558696 -1323.95532227 770.13037109 C-1274.62325685 770.97544478 -1225.30551265 771.33097206 -1175.9658699 771.31884766 C-1171.66604878 771.31781499 -1167.36622974 771.31841329 -1163.06640869 771.31948215 C-1154.14582313 771.32154426 -1145.22527019 771.31676663 -1136.30469322 771.30413246 C-1133.34505722 771.29995655 -1130.3854296 771.29759963 -1127.42579079 771.29695702 C-1114.1968322 771.29205496 -1100.97211235 771.25200633 -1087.7512207 770.74487305 C-1086.86601871 770.71466411 -1085.98081673 770.68445517 -1085.06879044 770.6533308 C-1072.24860092 770.24554141 -1072.24860092 770.24554141 -1061.51782227 764.13037109 C-1060.85782227 764.13037109 -1060.19782227 764.13037109 -1059.51782227 764.13037109 C-1058.83007821 762.80778637 -1058.17070853 761.47050607 -1057.51782227 760.13037109 C-1056.98157227 759.14037109 -1056.44532227 758.15037109 -1055.89282227 757.13037109 C-1053.46095255 751.31882603 -1053.51829146 744.60723361 -1055.24438477 738.60302734 C-1056.19917658 736.33248583 -1057.26907775 734.2524206 -1058.51782227 732.13037109 C-1058.89165039 731.48068359 -1059.26547852 730.83099609 -1059.65063477 730.16162109 C-1063.08516921 724.79373944 -1067.60780507 722.03861616 -1073.64672852 720.15380859 C-1082.45036163 718.49123397 -1091.22492696 717.68661908 -1100.16235352 717.10693359 C-1101.47754974 717.0210498 -1102.79274597 716.93516602 -1104.14779663 716.84667969 C-1117.91942938 715.9739633 -1131.70054911 715.53741087 -1145.49440002 715.18572998 C-1147.70338819 715.12881048 -1149.91230475 715.06959908 -1152.12121582 715.00976562 C-1199.434631 713.73059749 -1246.75985463 712.90632925 -1294.081604 712.00537109 C-1386.00418597 710.25481764 -1386.00418597 710.25481764 -1422.54125977 709.09130859 C-1424.38137634 709.03340652 -1424.38137634 709.03340652 -1426.25866699 708.97433472 C-1541.57981276 705.2908656 -1541.57981276 705.2908656 -1561.58813477 686.27880859 C-1585.00081172 660.212063 -1588.13892216 623.12776602 -1586.38891602 589.66552734 C-1584.6717829 564.61299545 -1577.08815262 537.4015923 -1560.51782227 518.13037109 C-1559.97383789 517.49099609 -1559.42985352 516.85162109 -1558.86938477 516.19287109 C-1543.08908101 499.00493461 -1513.40553614 501.93634072 -1491.88745117 500.96679688 C-1483.52669065 500.62100299 -1475.16387656 500.38728244 -1466.79864502 500.18572998 C-1464.45808026 500.12892107 -1462.11759254 500.06945541 -1459.77709961 500.00976562 C-1392.7833796 498.32901099 -1325.74566188 498.13414285 -1258.7353711 497.65985735 C-1256.47714236 497.64384979 -1254.21891413 497.62777264 -1251.96068604 497.61167276 C-1189.50701494 497.16647134 -1127.0530548 496.80911111 -1064.59863326 496.48881028 C-1049.08020499 496.40920436 -1033.56178776 496.32754021 -1018.04337151 496.24563009 C-1010.31980344 496.20486406 -1002.59623494 496.16418027 -994.87266636 496.12351227 C-994.10171741 496.11945267 -993.33076845 496.11539308 -992.53645741 496.11121046 C-974.50526494 496.01627966 -956.47406855 495.92210393 -938.44287109 495.828125 C-937.6618954 495.82405412 -936.88091971 495.81998323 -936.07627809 495.81578899 C-917.84585655 495.72076565 -899.61543382 495.62597186 -881.38500977 495.53143311 C-875.03450519 495.49849789 -868.68400063 495.46555915 -862.33349609 495.43261719 C-861.54928479 495.42854961 -860.76507348 495.42448203 -859.95709819 495.42029119 C-841.8857788 495.32655194 -823.8144613 495.23247011 -805.74314976 495.13722992 C-804.9741581 495.13317718 -804.20516644 495.12912444 -803.412872 495.12494889 C-795.71514251 495.08437101 -788.01741338 495.04372526 -780.31968474 495.00298577 C-776.52880789 494.98292519 -772.73793093 494.96288365 -768.94705391 494.94285583 C-768.20213649 494.93892031 -767.45721907 494.93498478 -766.68972839 494.93092999 C-755.76721193 494.87326741 -744.84468969 494.81681429 -733.92216301 494.76112366 C-675.72096133 494.46417197 -617.52055921 494.12410583 -559.32080078 493.61279297 C-558.12192188 493.6022883 -556.92304299 493.59178363 -555.68783443 493.58096063 C-532.64273158 493.37854532 -509.59777469 493.16528125 -486.55332947 492.89733887 C-485.81175429 492.88876702 -485.07017912 492.88019518 -484.30613197 492.87136358 C-416.47960605 492.29618266 -416.47960605 492.29618266 -348.76782227 488.75537109 C-348.06544434 488.704151 -347.36306641 488.65293091 -346.6394043 488.60015869 C-333.08025728 487.57586245 -320.07762811 484.63833704 -307.51782227 479.38037109 C-306.26364502 478.86603516 -306.26364502 478.86603516 -304.98413086 478.34130859 C-296.95582747 474.99503724 -289.18840272 471.22406019 -281.51782227 467.13037109 C-280.34993164 466.51677734 -279.18204102 465.90318359 -277.97875977 465.27099609 C-264.62217893 457.97462462 -252.47211188 448.68205282 -241.51782227 438.13037109 C-240.98979004 437.62812012 -240.46175781 437.12586914 -239.91772461 436.60839844 C-231.27608441 428.35657004 -223.59288575 419.75357082 -216.51782227 410.13037109 C-215.81109375 409.18218506 -215.81109375 409.18218506 -215.09008789 408.21484375 C-197.44874726 384.44378496 -182.62697401 357.96814297 -172.51782227 330.13037109 C-172.19217285 329.2410791 -171.86652344 328.35178711 -171.53100586 327.43554688 C-153.19952954 276.73127326 -146.94386357 222.37509639 -139.40356445 169.2890625 C-124.95566361 67.57787609 -124.95566361 67.57787609 -113.51782227 42.13037109 C-113.04086914 41.05787109 -112.56391602 39.98537109 -112.07250977 38.88037109 C-103.97318399 22.29044777 -89.40138358 11.31252021 -72.13891602 5.15771484 C-67.93512088 3.96505236 -63.76334702 3.09629362 -59.45532227 2.38037109 C-58.76744629 2.26459717 -58.07957031 2.14882324 -57.37084961 2.02954102 C-38.46735381 -0.72817997 -19.05501176 -0.02890348 0 0 Z " fill="#114C70" transform="translate(2380.517822265625,29.86962890625)"/>
<path d="M0 0 C3.98132127 0.00536369 7.96252977 0.00001775 11.94384766 -0.00634766 C82.57598258 -0.02633527 82.57598258 -0.02633527 106.48681641 21.13037109 C107.11201172 21.64986328 107.73720703 22.16935547 108.38134766 22.70458984 C142.70651891 53.4655221 141.53889059 128.96362405 147.48681641 171.13037109 C160.45076049 263.0351933 174.20433029 356.49176471 239.33056641 427.75146484 C241.28297077 429.90547618 243.16959 432.10064836 245.04931641 434.31787109 C256.18637352 447.02781555 271.00225422 456.65839849 285.48681641 465.13037109 C286.13569824 465.5104834 286.78458008 465.8905957 287.453125 466.28222656 C296.37935849 471.42982931 305.63791769 475.61418428 315.17431641 479.50537109 C316.18292725 479.92238281 317.19153809 480.33939453 318.23071289 480.76904297 C330.56330586 485.661773 343.12996496 487.63677762 356.29931641 488.69287109 C357.03356842 488.75351746 357.76782043 488.81416382 358.52432251 488.87664795 C401.40119121 492.33191038 444.76643441 492.37501028 487.75732422 492.8984375 C488.50508975 492.90759064 489.25285529 492.91674378 490.02328038 492.92617428 C511.51854632 493.18780293 533.01430121 493.3990813 554.51025391 493.59521484 C555.665803 493.60577534 556.8213521 493.61633583 558.01191783 493.62721634 C631.11240187 494.29171147 704.21514439 494.6373557 777.31752849 495.01914115 C792.65032029 495.09922055 807.98310611 495.18036232 823.31588745 495.26242065 C824.85652755 495.27066525 824.85652755 495.27066525 826.4282917 495.2790764 C830.58069978 495.3013013 834.73310782 495.3235333 838.88551582 495.34577421 C908.91924031 495.720883 978.95300258 496.08872744 1048.98681641 496.44677734 C1051.16861344 496.45793501 1053.35041046 496.469093 1055.53220749 496.48025131 C1058.70401474 496.49647221 1061.87582198 496.51269294 1065.04762924 496.52891266 C1148.01336738 496.95320596 1230.97895804 497.39313891 1417.48681641 499.13037109 C1418.54795528 499.14424992 1418.54795528 499.14424992 1419.63053131 499.15840912 C1508.18793129 500.32642338 1508.18793129 500.32642338 1537.04931641 503.50537109 C1537.99822754 503.6070459 1538.94713867 503.7087207 1539.92480469 503.81347656 C1552.95815117 505.50105644 1561.90124318 510.33879783 1570.38525391 520.37646484 C1586.1841556 541.57272889 1594.52907088 570.96306678 1594.68994141 597.18896484 C1594.69564148 597.93638443 1594.70134155 598.68380402 1594.70721436 599.45387268 C1594.7166002 601.02953711 1594.72317256 602.60522059 1594.72705078 604.1809082 C1594.73666544 606.53097192 1594.76771174 608.88012451 1594.79931641 611.22998047 C1594.9850506 637.75306741 1587.42899145 664.99058065 1569.48681641 685.13037109 C1557.44151855 697.1964367 1540.8213381 702.56356061 1524.21728516 704.11474609 C1523.29762466 704.20075577 1522.37796417 704.28676544 1521.43043518 704.37538147 C1509.94529678 705.40783384 1498.44096953 706.01325479 1486.92431641 706.56787109 C1485.62882874 706.6304007 1484.33334106 706.6929303 1482.99859619 706.75735474 C1423.16520299 709.61389574 1363.27402345 710.92080679 1303.38916016 712.13818359 C1301.78646444 712.17081405 1301.78646444 712.17081405 1300.15139103 712.20410371 C1278.30396865 712.64873402 1256.45642624 713.08664939 1234.60844135 713.50279647 C1180.96513982 714.43586274 1180.96513982 714.43586274 1127.34228516 716.12646484 C1126.41373529 716.1625139 1125.48518543 716.19856297 1124.5284977 716.23570442 C1115.23092887 716.60634845 1105.97405226 717.19244421 1096.71069336 718.07983398 C1095.48738328 718.19419501 1095.48738328 718.19419501 1094.23935986 718.31086636 C1086.22694353 719.13042111 1078.14172599 720.40862991 1071.54931641 725.31787109 C1064.38111543 735.09269061 1061.11120686 741.62968625 1062.48681641 754.13037109 C1064.73124359 760.42470563 1068.42501874 764.78960919 1074.06884766 768.29052734 C1092.56346075 774.71434288 1116.78220339 771.29352837 1136.13330364 771.29742599 C1139.3582423 771.29867201 1142.58317405 771.30313132 1145.80810988 771.30740529 C1155.43106121 771.31979059 1165.05399466 771.32108576 1174.67695236 771.31884766 C1179.2826798 771.31779706 1183.88840532 771.31842665 1188.4941327 771.31949055 C1237.6354542 771.32965851 1286.75682901 771.02051772 1335.89053154 770.16572428 C1386.15569382 769.2919674 1436.40929508 768.90341473 1486.68239707 768.88470984 C1493.00465348 768.88218337 1499.32689004 768.87473659 1505.6491394 768.86523438 C1659.20247952 768.65072159 1659.20247952 768.65072159 1683.98681641 791.81787109 C1705.47929356 815.5783986 1708.79814827 848.46888238 1707.48681641 879.13037109 C1705.4807371 904.06426512 1697.92770723 929.39520488 1679.48681641 947.13037109 C1657.75244132 965.18423703 1620.99730041 961.17047236 1594.33886719 961.67138672 C1592.70440655 961.70281847 1592.70440655 961.70281847 1591.03692651 961.73488522 C1558.42576142 962.34428145 1525.80869069 962.3367168 1493.19294881 962.39569142 C1483.72194592 962.41308603 1474.2509598 962.43641313 1464.7799709 962.46010572 C1447.79440114 962.50252056 1430.80882579 962.54169043 1413.82324219 962.578125 C1412.81548009 962.5802878 1411.807718 962.58245061 1410.76941766 962.58467895 C1404.65188031 962.5977921 1398.5343428 962.61083279 1392.41680527 962.62386036 C1383.29837766 962.64329338 1374.17995037 962.66286949 1365.06152344 962.68261719 C1364.06415169 962.68477606 1363.06677993 962.68693493 1362.03918479 962.68915921 C1345.13440986 962.72585477 1328.22964405 962.76584521 1311.32488167 962.80791998 C1301.92547281 962.83117497 1292.52606622 962.85282742 1283.12664413 962.87001038 C1245.12779757 962.93997859 1207.13251269 963.10118787 1169.13606063 963.5543009 C1166.57611947 963.58467354 1164.01616953 963.61417917 1161.45621657 963.64353848 C1144.01872166 963.84608184 1126.58577457 964.13562244 1109.15328979 964.60583496 C1108.0637086 964.63432057 1108.0637086 964.63432057 1106.95211567 964.66338164 C1077.29561188 963.1428813 1077.29561188 963.1428813 1051.11181641 971.13037109 C1046.23084461 980.14139595 1045.30482983 988.96680203 1047.72509766 998.88818359 C1049.60447354 1004.42029518 1052.54378123 1008.95875788 1057.48681641 1012.13037109 C1066.22167041 1014.33819254 1075.52398215 1014.63511896 1084.48681641 1015.19287109 C1085.61603516 1015.27085937 1086.74525391 1015.34884766 1087.90869141 1015.42919922 C1115.96376168 1017.25037063 1144.07267297 1017.35358346 1172.17422485 1017.57565308 C1182.63768319 1017.65856703 1193.10101277 1017.75597198 1203.56435585 1017.85217094 C1207.04959039 1017.88417226 1210.53482771 1017.91585881 1214.02006531 1017.94752502 C1289.7948685 1018.63972312 1365.58571287 1019.94341235 1573.48681641 1041.13037109 C1574.34404297 1041.59443359 1575.20126953 1042.05849609 1576.08447266 1042.53662109 C1591.14031267 1051.07507636 1598.66228025 1062.57559016 1603.48681641 1079.13037109 C1606.37398682 1091.04192117 1606.68283515 1103.24247909 1606.67431641 1115.44287109 C1606.67404449 1116.10667786 1606.67377258 1116.77048462 1606.67349243 1117.45440674 C1606.55662844 1180.36088921 1606.55662844 1180.36088921 1589.29931641 1198.41943359 C1571.71309369 1215.27289703 1545.84195175 1217.87273641 1522.56201172 1219.58349609 C1520.2781383 1219.75231664 1517.99589439 1219.93637153 1515.71337891 1220.12255859 C1489.45976412 1222.18632433 1463.1545822 1222.27636265 1436.83899331 1222.23177767 C1432.31686856 1222.22528342 1427.79474222 1222.2248253 1423.27261353 1222.22360229 C1415.46852781 1222.22074209 1407.6644518 1222.21434731 1399.86037064 1222.20553589 C1388.55253029 1222.19286406 1377.24469342 1222.18687825 1365.93684714 1222.18260252 C1347.54871559 1222.17556638 1329.16058852 1222.16478933 1310.77246094 1222.15087891 C1309.12837508 1222.14963719 1309.12837508 1222.14963719 1307.45107536 1222.14837039 C1299.6713223 1222.14246999 1291.89156934 1222.1364346 1284.11181641 1222.13037109 C1275.21419278 1222.12343879 1266.31656911 1222.1165722 1257.41894531 1222.10986328 C1256.32243222 1222.10903515 1255.22591913 1222.10820703 1254.09617837 1222.10735381 C1235.7606993 1222.0936301 1217.42522015 1222.0838925 1199.0897373 1222.07695293 C1187.81980134 1222.07249638 1176.54987873 1222.06450808 1165.27994899 1222.05180812 C1157.55462091 1222.04333068 1149.82929587 1222.03847982 1142.10396345 1222.03638291 C1137.66152033 1222.03504936 1133.21909446 1222.03211641 1128.7766571 1222.02462387 C1086.68185403 1218.49274284 1086.68185403 1218.49274284 1049.56103516 1230.04443359 C1044.80711538 1235.77275929 1041.97207447 1241.24830655 1041.04931641 1248.63037109 C1042.23835253 1258.14266008 1048.95966338 1265.69152917 1056.25244141 1271.54833984 C1065.37299972 1276.90974912 1078.3087252 1277.22920743 1088.64526367 1277.69482422 C1089.50411195 1277.73530632 1090.36296022 1277.77578842 1091.24783421 1277.81749725 C1101.56234615 1278.26883284 1111.87889249 1278.34188779 1122.20166016 1278.41162109 C1124.36015659 1278.42939742 1126.51864961 1278.44759166 1128.67713928 1278.46617126 C1133.23420817 1278.50479812 1137.79128673 1278.54114839 1142.34838867 1278.57565308 C1153.14159067 1278.65792547 1163.93465853 1278.75570028 1174.72774124 1278.85217094 C1178.31966175 1278.88421491 1181.91158543 1278.9158856 1185.50350952 1278.94752502 C1266.16857075 1279.6623753 1346.92572414 1280.73417466 1449.48681641 1286.63037109 C1450.18932526 1286.68417938 1450.89183411 1286.73798767 1451.6156311 1286.79342651 C1467.37305548 1288.03535694 1483.55680823 1289.37869489 1494.48681641 1302.13037109 C1510.70503709 1321.13882329 1510.67406177 1347.46057578 1510.67211914 1371.19750977 C1510.67429347 1374.16160719 1510.69246504 1377.12532416 1510.71142578 1380.08935547 C1510.77681242 1401.91972038 1510.71201217 1428.39221539 1495.13916016 1445.60693359 C1473.85927409 1465.22668671 1449.93784212 1466.27495499 1422.43212891 1466.29614258 C1420.97773696 1466.29998656 1419.52334548 1466.30400934 1418.06895447 1466.3081913 C1414.09235094 1466.31730671 1410.11579112 1466.31799323 1406.13917923 1466.31552052 C1403.57145372 1466.31394 1401.00373059 1466.31385749 1398.43600464 1466.31377983 C1350.51474822 1466.29771994 1302.60475124 1465.31700475 1254.69394112 1464.40538538 C1240.99609301 1464.14489107 1227.29810474 1463.89211281 1213.60009766 1463.64013672 C1211.76824565 1463.60642682 1211.76824565 1463.60642682 1209.89938653 1463.57203591 C1202.58948721 1463.43755364 1195.27958293 1463.30334332 1187.96967626 1463.16926122 C1184.37159128 1463.10320679 1180.77350952 1463.03697993 1177.17542839 1462.97071648 C1120.42813538 1461.92643243 1063.68325477 1460.91001441 1006.92431641 1460.94287109 C1005.33392044 1460.94327141 1005.33392044 1460.94327141 1003.71139526 1460.94367981 C952.10976262 1460.95979585 900.91375182 1462.62488772 849.48681641 1467.13037109 C848.56727173 1467.21029297 847.64772705 1467.29021484 846.70031738 1467.37255859 C782.65730313 1472.9706732 719.19003945 1483.27523205 665.48681641 1521.13037109 C664.43107422 1521.86255859 663.37533203 1522.59474609 662.28759766 1523.34912109 C647.38195068 1533.76952143 633.07546922 1545.04429001 619.48681641 1557.13037109 C618.96877441 1557.59056641 618.45073242 1558.05076172 617.91699219 1558.52490234 C610.76318688 1564.91986837 603.91053262 1571.6107566 597.11181641 1578.38037109 C596.36254883 1579.12496582 595.61328125 1579.86956055 594.84130859 1580.63671875 C590.18568666 1585.30583223 585.75633049 1590.10653032 581.48681641 1595.13037109 C580.94331543 1595.76716797 580.39981445 1596.40396484 579.83984375 1597.06005859 C555.96444844 1625.23061125 537.09570209 1656.22819531 520.48681641 1689.13037109 C519.99036621 1690.11247559 519.49391602 1691.09458008 518.98242188 1692.10644531 C510.48267794 1709.04781055 503.15328316 1726.39794151 496.48681641 1744.13037109 C496.23414001 1744.8024762 495.98146362 1745.4745813 495.72113037 1746.16705322 C463.08553502 1833.35178958 446.12327731 1919.86928935 440.28825983 2194.39092277 C440.28113131 2205.29985992 440.26834736 2216.20878897 440.25548977 2227.11772062 C440.23192872 2247.23437596 440.21262247 2267.35103314 440.19589043 2287.46769524 C440.17935083 2307.3356139 440.16082843 2327.20352916 440.13975716 2347.07144356 C440.13778075 2348.93651581 440.13778075 2348.93651581 440.13576441 2350.8392663 C440.12906071 2357.15584236 440.12232256 2363.47241837 440.11557115 2369.78899438 C440.06802829 2414.32750656 440.02478065 2458.86602208 439.98413086 2503.40454102 C439.97431525 2514.15704349 439.96448428 2524.90954594 439.95458984 2535.66204834 C439.95397605 2536.32909273 439.95336225 2536.99613713 439.95272985 2537.68339499 C439.92407586 2568.80018998 439.89294265 2599.91698236 439.86120678 2631.03377434 C439.85912596 2633.07438154 439.85704676 2635.11498874 439.85496809 2637.15559594 C439.8310073 2660.6768639 439.80689719 2684.19813171 439.78274367 2707.71939947 C439.6779594 2809.85638467 439.58314692 2911.99337686 439.48681641 3014.13037109 C244.45681641 3014.13037109 49.42681641 3014.13037109 -151.51318359 3014.13037109 C-151.59202689 2702.46280247 -151.59202689 2702.46280247 -151.57731247 2610.61300302 C-151.57704314 2608.89992254 -151.57677405 2607.18684206 -151.57650518 2605.47376159 C-151.5763696 2604.61467249 -151.57623402 2603.75558339 -151.57609433 2602.87046129 C-151.57567733 2600.19565061 -151.57527514 2597.52083993 -151.57487726 2594.84602925 C-151.55971784 2493.23794686 -151.51015454 2391.62991692 -151.07568359 1976.88037109 C-151.07430039 1975.71772206 -151.07291718 1974.55507303 -151.07149205 1973.35719221 C-150.93360613 1857.48821642 -150.78759062 1741.61925124 -150.62288411 1615.45464086 C-150.60952534 1605.22610824 -150.59617279 1594.99757561 -150.58282471 1584.76904297 C-150.58136441 1583.65019386 -150.57990412 1582.53134475 -150.57839958 1581.37859113 C-150.53394876 1547.31603441 -150.49029166 1513.25347675 -150.44744873 1479.19091797 C-150.44611984 1478.13450708 -150.44479094 1477.07809619 -150.44342177 1475.98967284 C-150.42878565 1464.35337351 -150.41417024 1452.71707415 -150.39956152 1441.08077478 C-150.30384036 1364.83988309 -150.2056647 1288.5989951 -150.10306263 1212.35811234 C-150.10179326 1211.41479855 -150.1005239 1210.47148477 -150.09921607 1209.49958572 C-150.08778338 1201.00420264 -150.07634772 1192.50881957 -150.06489133 1184.01343653 C-150.03210432 1159.69586259 -150.00011822 1135.37828777 -149.96896865 1111.06071168 C-149.86495858 1029.87744211 -149.75587177 948.69417059 -149.09084025 664.01654787 C-149.05787275 652.43339769 -149.02585359 640.85024525 -148.99443609 629.26709076 C-148.79117527 554.43350457 -148.50335721 479.60113084 -148.02751069 404.76873408 C-148.01139693 402.2317739 -147.99536814 399.6948132 -147.97936022 397.15785235 C-147.66946657 348.11040691 -147.32419239 299.06355066 -146.57244873 250.02050781 C-146.51460726 246.2238197 -146.45922846 242.42710228 -146.40429688 238.63037109 C-146.06133024 215.3487564 -145.48512608 192.08457148 -144.57568359 168.81787109 C-144.53806915 167.82260406 -144.50045471 166.82733704 -144.46170044 165.8019104 C-144.05597278 155.26147823 -143.47755002 144.75554517 -142.54443359 134.24755859 C-142.4663295 133.35739548 -142.3882254 132.46723236 -142.30775452 131.5500946 C-138.85593933 94.88689084 -124.15266095 54.56057309 -100.51318359 26.13037109 C-99.96404297 25.46521484 -99.41490234 24.80005859 -98.84912109 24.11474609 C-83.94040615 7.75338713 -62.76089929 1.74868945 -41.39782715 0.67111206 C-40.1207489 0.61614059 -40.1207489 0.61614059 -38.81787109 0.56005859 C-37.41776794 0.4986821 -37.41776794 0.4986821 -35.98937988 0.43606567 C-23.99703852 -0.03485879 -11.99979754 -0.01918551 0 0 Z " fill="#114C70" transform="translate(2826.51318359375,851.86962890625)"/>
<path d="M0 0 C1.90506005 -0.00322435 3.81011987 -0.00658924 5.71517944 -0.01008606 C9.69049655 -0.01603659 13.66579205 -0.01793023 17.64111328 -0.01733398 C22.67658552 -0.01723268 27.71191577 -0.03087083 32.74735451 -0.04810619 C36.67874763 -0.05935357 40.61010781 -0.06124932 44.54151535 -0.06072426 C46.39501814 -0.06188585 48.24852231 -0.06620185 50.10200882 -0.07405663 C77.60862296 -0.17971157 104.05819313 1.8581199 124.92773438 21.82104492 C162.2716687 59.29908024 171.12368856 119.40967558 173.1484375 169.85546875 C173.1895163 170.84627441 173.23059509 171.83708008 173.2729187 172.85791016 C174.65903008 206.40918667 175.15291055 239.96838027 175.58203125 273.54296875 C175.59840354 274.82017068 175.59840354 274.82017068 175.61510658 276.12317467 C175.98216437 304.81491049 176.2854487 333.50633649 176.46957397 362.19987488 C176.47415664 362.91088054 176.4787393 363.6218862 176.48346084 364.35443749 C176.97850148 441.37475087 177.28398199 518.39590053 177.54305528 595.41731599 C177.5508321 597.72603211 177.55863926 600.03474812 177.56645641 602.34346411 C177.90961393 703.7115874 178.16412561 805.0798596 179.02818241 1244.51063473 C179.11250635 1289.96990247 179.1987003 1335.42916633 179.28637695 1380.88842773 C179.29214604 1383.87987742 179.29791494 1386.87132711 179.30368382 1389.86277679 C179.30511052 1390.60257906 179.30653721 1391.34238132 179.30800713 1392.10460184 C179.32382609 1400.30760031 179.33963968 1408.5105988 179.35544682 1416.7135973 C179.35757611 1417.81848261 179.35757611 1417.81848261 179.35974842 1418.94568884 C179.43710621 1459.08957924 179.51305757 1499.23347229 179.58854192 1539.37736624 C179.59121586 1540.79923771 179.59388986 1542.22110918 179.59656391 1543.64298064 C179.59788515 1544.34552556 179.59920639 1545.04807049 179.60056766 1545.77190465 C179.60323192 1547.18855004 179.60589625 1548.60519544 179.60856064 1550.02184083 C179.61519211 1553.54777809 179.62182256 1557.07371535 179.6284508 1560.59965261 C179.66335596 1579.16468208 179.69871678 1597.72971062 179.73449781 1616.29473843 C179.79757409 1649.02306772 179.85927485 1681.7513993 179.91821289 1714.47973633 C179.92147008 1716.28639578 179.92147008 1716.28639578 179.92479307 1718.12955341 C180.07957941 1804.14240823 180.14156956 1890.15499082 180.0859375 1976.16796875 C131.806321 1976.18511035 83.52670428 1976.20102788 35.24708557 1976.21031189 C34.1729414 1976.21051898 34.1729414 1976.21051898 33.07709734 1976.21073024 C17.50933913 1976.21372409 1.94158089 1976.21649414 -13.6261774 1976.21903408 C-21.26209679 1976.22028127 -28.89801617 1976.22157784 -36.53393555 1976.22290039 C-37.29374663 1976.22303115 -38.05355772 1976.22316191 -38.83639338 1976.22329663 C-63.40413606 1976.22754769 -87.97187642 1976.23505126 -112.53961769 1976.24426597 C-137.81469334 1976.25372862 -163.08976771 1976.25986113 -188.36484511 1976.26188374 C-191.9458509 1976.26217184 -195.52685669 1976.26249747 -199.10786247 1976.26284599 C-200.16491215 1976.26294713 -200.16491215 1976.26294713 -201.24331636 1976.26305031 C-212.52537014 1976.26422582 -223.80741992 1976.26884694 -235.08947208 1976.27480078 C-246.46907681 1976.28073097 -257.84867646 1976.28284593 -269.22828311 1976.28147013 C-275.37881239 1976.2808343 -281.52933008 1976.28175763 -287.67985725 1976.28717422 C-394.05763418 1976.37601879 -394.05763418 1976.37601879 -409.3984375 1966.83984375 C-414.20035359 1961.54288477 -414.9173619 1953.84388869 -416.078125 1947.078125 C-416.47705217 1944.84713911 -416.87614769 1942.61618331 -417.27539062 1940.38525391 C-417.48107666 1939.21859192 -417.6867627 1938.05192993 -417.89868164 1936.84991455 C-422.07273249 1913.2580932 -426.76247603 1889.85291457 -432.34301758 1866.55505371 C-432.92181873 1864.13554611 -433.49539892 1861.71484206 -434.06835938 1859.29394531 C-448.63263164 1797.96536784 -467.40143243 1737.01384286 -494.9140625 1680.16796875 C-495.3383252 1679.2867334 -495.76258789 1678.40549805 -496.19970703 1677.49755859 C-508.24493065 1652.75961745 -524.37154821 1629.99854301 -542.32421875 1609.1953125 C-544.78958662 1606.31347223 -547.16959269 1603.37877937 -549.5390625 1600.41796875 C-553.060974 1596.08475978 -556.82345228 1592.15201364 -560.8203125 1588.2578125 C-562.66612166 1586.41544702 -564.35952919 1584.5352723 -566.0390625 1582.54296875 C-573.61573712 1573.72421632 -582.09722087 1565.31527296 -590.984375 1557.8203125 C-593.39940443 1555.75238244 -595.70971975 1553.58189441 -598.0390625 1551.41796875 C-603.78901294 1546.18140674 -609.81991025 1541.3875264 -615.98681641 1536.65380859 C-617.99691099 1535.10409544 -619.99301817 1533.53750141 -621.98828125 1531.96875 C-636.44600816 1520.66604649 -651.65146808 1510.6863038 -667.9140625 1502.16796875 C-669.15422119 1501.51828125 -669.15422119 1501.51828125 -670.41943359 1500.85546875 C-747.73303553 1460.92972089 -844.49555999 1462.92759306 -929.28979492 1461.56005859 C-947.17521587 1461.26008515 -965.02871374 1460.70994902 -982.9140625 1460.16796875 C-982.9140625 1419.24796875 -982.9140625 1378.32796875 -982.9140625 1336.16796875 C-983.5740625 1336.16796875 -984.2340625 1336.16796875 -984.9140625 1336.16796875 C-984.9140625 1377.08796875 -984.9140625 1418.00796875 -984.9140625 1460.16796875 C-1041.98340218 1461.26545605 -1041.98340218 1461.26545605 -1070.05273438 1461.49954224 C-1101.5174984 1461.76713162 -1132.97617653 1462.23798798 -1164.43592548 1462.84763598 C-1168.84120901 1462.93296705 -1173.24650197 1463.01780804 -1177.65179443 1463.10267639 C-1178.53582994 1463.11971007 -1179.41986545 1463.13674375 -1180.33068991 1463.1542936 C-1241.55772039 1464.33364639 -1302.77436202 1465.4738649 -1364.01473999 1465.47938156 C-1367.94375303 1465.48045975 -1371.87274851 1465.4851606 -1375.80175781 1465.49050903 C-1381.88166647 1465.49726328 -1387.96144326 1465.49201086 -1394.04133415 1465.47611237 C-1396.22293591 1465.4713112 -1398.40454639 1465.46936892 -1400.58615303 1465.4706955 C-1422.55178884 1465.47380034 -1441.60612253 1464.66665882 -1459.9140625 1451.16796875 C-1461.5228125 1450.02328125 -1461.5228125 1450.02328125 -1463.1640625 1448.85546875 C-1481.12495298 1431.30278033 -1482.36824204 1406.84293125 -1482.9140625 1383.16796875 C-1482.93597656 1382.33571777 -1482.95789062 1381.5034668 -1482.98046875 1380.64599609 C-1483.58770062 1354.43888073 -1484.2061849 1321.07867299 -1465.9140625 1300.16796875 C-1429.19288108 1266.02759325 -1318.81401202 1281.30258179 -1269.9140625 1280.16796875 C-1268.73299927 1280.14003235 -1267.55193604 1280.11209595 -1266.33508301 1280.08331299 C-1240.51090995 1279.47490484 -1214.68522666 1279.16367638 -1188.85546875 1278.921875 C-1187.16227981 1278.90598233 -1187.16227981 1278.90598233 -1185.43488503 1278.8897686 C-1173.97894033 1278.7826857 -1162.52298093 1278.67904492 -1151.06690693 1278.58674526 C-1129.07244277 1278.40887769 -1107.07804303 1278.19693154 -1085.08602524 1277.81639099 C-1082.96775666 1277.7806721 -1080.84944049 1277.74764675 -1078.73108292 1277.71766663 C-1048.14555378 1278.4561763 -1048.14555378 1278.4561763 -1021.9296875 1265.43359375 C-1017.41380638 1260.35760334 -1013.66566838 1255.24857033 -1013.1640625 1248.29296875 C-1013.65314004 1240.92187154 -1017.37542427 1233.04677161 -1022.8515625 1228.04296875 C-1040.24729026 1217.39252318 -1068.7853961 1221.89063467 -1088.55779505 1221.95049655 C-1092.89635481 1221.96134629 -1097.23491527 1221.96029968 -1101.57348633 1221.96076965 C-1109.07316531 1221.96311608 -1116.57280658 1221.97262706 -1124.07247162 1221.9870739 C-1134.96209 1222.00794497 -1145.85169265 1222.01647082 -1156.74132839 1222.02199525 C-1174.477628 1222.03122512 -1192.21390903 1222.04863808 -1209.95019531 1222.07202148 C-1211.00851198 1222.0734148 -1212.06682864 1222.07480811 -1213.15721551 1222.07624365 C-1214.21667534 1222.07763918 -1215.27613518 1222.07903471 -1216.36769986 1222.08047253 C-1218.51059548 1222.08329354 -1220.6534911 1222.08611211 -1222.79638672 1222.08892822 C-1224.38890814 1222.09102121 -1224.38890814 1222.09102121 -1226.01360171 1222.09315648 C-1237.76590179 1222.1084488 -1249.51820413 1222.12136966 -1261.27050781 1222.13354492 C-1262.32144523 1222.13463577 -1263.37238266 1222.13572662 -1264.45516667 1222.13685053 C-1282.10802375 1222.15500376 -1299.76088276 1222.16891486 -1317.41374516 1222.18071657 C-1327.28575362 1222.18755588 -1337.15774821 1222.19696273 -1347.02974701 1222.21256828 C-1535.07960322 1222.50841228 -1535.07960322 1222.50841228 -1562.6640625 1196.85546875 C-1581.44400381 1176.96821958 -1578.19808427 1142.2779004 -1578.2890625 1116.79296875 C-1578.29682709 1115.79535522 -1578.30459167 1114.7977417 -1578.31259155 1113.76989746 C-1578.45466174 1090.63982378 -1576.57535731 1067.28822584 -1559.66796875 1049.8515625 C-1554.9020104 1045.74464055 -1549.60109371 1042.73461452 -1544.0390625 1039.85546875 C-1543.41572021 1039.52957764 -1542.79237793 1039.20368652 -1542.15014648 1038.86791992 C-1499.89311232 1018.17290497 -1433.74420551 1024.2699347 -1387.9140625 1022.16796875 C-1386.85962952 1022.11940735 -1385.80519653 1022.07084595 -1384.71881104 1022.02081299 C-1313.06816554 1018.75544556 -1241.31240404 1017.97294532 -1169.59912109 1017.50952148 C-1147.79601595 1017.36580042 -1125.99791024 1017.17833682 -1104.19921875 1016.69921875 C-1103.29992393 1016.68002821 -1102.40062912 1016.66083767 -1101.47408295 1016.6410656 C-1080.7484587 1016.18955584 -1059.88919091 1015.60563776 -1039.27734375 1013.2890625 C-1038.00802002 1013.14782959 -1036.73869629 1013.00659668 -1035.4309082 1012.86108398 C-1030.70093336 1011.92887999 -1027.19299113 1010.41035656 -1023.7265625 1007.04296875 C-1018.27969095 998.40310353 -1017.3243329 988.36251427 -1019.5234375 978.41015625 C-1020.21957348 976.25781746 -1020.97590187 974.22503656 -1021.9140625 972.16796875 C-1022.12804687 971.45253906 -1022.34203125 970.73710937 -1022.5625 970 C-1023.87224138 967.81658378 -1023.87224138 967.81658378 -1027.1171875 967.375 C-1028.46404207 967.22345352 -1029.81341657 967.09333654 -1031.1640625 966.98046875 C-1032.25412598 966.86940796 -1032.25412598 966.86940796 -1033.36621094 966.75610352 C-1035.54753333 966.54049662 -1037.72985496 966.35169673 -1039.9140625 966.16796875 C-1040.9659375 966.06742188 -1042.0178125 965.966875 -1043.1015625 965.86328125 C-1092.7746668 961.68161686 -1143.16933891 963.00677517 -1192.98337238 962.90264884 C-1201.23295965 962.88514486 -1209.48252831 962.86183317 -1217.73210004 962.83823413 C-1232.59694596 962.79579608 -1247.4617984 962.75666737 -1262.32666016 962.72021484 C-1263.20820543 962.71805204 -1264.08975071 962.71588924 -1264.99800947 962.7136609 C-1268.56024573 962.70492858 -1272.12248202 962.69621005 -1275.68471836 962.68750802 C-1305.96430592 962.61351056 -1336.24388385 962.53607312 -1366.5234375 962.44921875 C-1367.36676848 962.44680412 -1368.21009946 962.44438949 -1369.07898593 962.44190168 C-1416.28086998 962.30631825 -1463.48185046 962.11004625 -1510.68257461 961.74562541 C-1515.32082184 961.70984936 -1519.95907898 961.67571346 -1524.59734344 961.64222717 C-1636.25163989 960.82510283 -1636.25163989 960.82510283 -1655.1015625 943.54296875 C-1675.35227341 922.00847045 -1680.62375687 888.76669242 -1679.83959961 860.30639648 C-1678.64758009 833.8013404 -1671.97474899 806.72955502 -1651.9140625 788.16796875 C-1623.74396933 765.32168783 -1573.75167436 769.39531518 -1539.35205078 768.61523438 C-1538.45583519 768.59435918 -1537.5596196 768.57348398 -1536.63624597 768.5519762 C-1517.00584763 768.10220536 -1497.37990637 767.9899321 -1477.74495173 768.00914192 C-1474.8275551 768.01179019 -1471.9101612 768.01272664 -1468.99276352 768.01347351 C-1414.78081402 768.03731971 -1360.57781978 768.91414716 -1306.37313843 769.72264862 C-1253.12036089 770.51656437 -1199.87171028 771.30998226 -1146.61192083 771.32322884 C-1143.66417211 771.32419565 -1140.71642808 771.32673528 -1137.76868057 771.32951355 C-1119.56998063 771.34220225 -1101.37366991 771.26850018 -1083.17934632 770.83889294 C-1081.64034676 770.80273385 -1080.10129267 770.76880154 -1078.56218696 770.73748493 C-1070.55941433 770.56835269 -1062.61988096 770.15456089 -1054.65890503 769.29748535 C-1053.95349425 769.2271224 -1053.24808348 769.15675944 -1052.52129662 769.08426428 C-1046.68205627 768.39377975 -1042.70897538 766.6705816 -1038.9140625 762.16796875 C-1034.38574708 755.96498047 -1033.07633776 749.70749145 -1033.9140625 742.16796875 C-1035.88111488 734.89549511 -1039.43619936 727.05580371 -1045.94921875 722.85546875 C-1054.66851269 718.67266813 -1064.44992674 717.84240679 -1073.96679688 717.10546875 C-1075.00937401 717.02240479 -1076.05195114 716.93934082 -1077.12612152 716.85375977 C-1088.76336329 715.96779518 -1100.40675735 715.52864359 -1112.0703125 715.16796875 C-1113.91705315 715.10826904 -1113.91705315 715.10826904 -1115.80110168 715.04736328 C-1158.86392648 713.66648905 -1201.94969998 713.02481444 -1245.02627563 712.23046875 C-1263.93688828 711.881594 -1282.84743283 711.52926906 -1301.7578125 711.16796875 C-1303.36693189 711.13726599 -1303.36693189 711.13726599 -1305.00855875 711.10594296 C-1333.32208631 710.56442907 -1361.63129712 709.94716128 -1389.9375 709.1015625 C-1390.62465277 709.08113262 -1391.31180553 709.06070274 -1392.01978111 709.03965378 C-1522.53579164 705.14946009 -1522.53579164 705.14946009 -1544.53125 682.05078125 C-1566.91314527 654.97235714 -1568.58261361 614.54530458 -1565.453125 581.16015625 C-1564.87530737 576.43193357 -1564.0006369 571.80421475 -1562.9140625 567.16796875 C-1562.71538574 566.31638184 -1562.51670898 565.46479492 -1562.31201172 564.58740234 C-1557.35665488 544.1460914 -1549.12016595 521.53013776 -1530.9140625 509.16796875 C-1525.03996334 506.03657436 -1519.43237346 504.35814184 -1512.8515625 503.54296875 C-1511.93149414 503.42453613 -1511.01142578 503.30610352 -1510.06347656 503.18408203 C-1479.59996236 499.61920271 -1448.54698268 499.70354441 -1417.9140625 499.16796875 C-1416.83050476 499.14841125 -1415.74694702 499.12885376 -1414.6305542 499.10870361 C-1374.93525574 498.39267068 -1335.23644186 498.01643983 -1295.53637695 497.68164062 C-1294.27797871 497.67095846 -1293.01958046 497.66027629 -1291.72304894 497.64927042 C-1233.41376411 497.1547269 -1175.10374309 496.82334111 -1116.79315806 496.52640794 C-1101.24131819 496.44720109 -1085.6894926 496.36535589 -1070.13766793 496.28322774 C-1062.41107849 496.24242846 -1054.68448841 496.20175057 -1046.95789814 496.16110992 C-1046.18609868 496.15705033 -1045.41429922 496.15299073 -1044.6191119 496.14880812 C-1026.50608894 496.05356538 -1008.39305965 495.95954768 -990.2800293 495.86572266 C-989.49421196 495.86165177 -988.70839463 495.85758089 -987.89876465 495.85338665 C-980.74153139 495.8163093 -973.58429809 495.77924033 -966.42706476 495.74217853 C-948.95975763 495.65172374 -931.49245171 495.56103731 -914.02514648 495.47021484 C-913.24277494 495.46614727 -912.46040339 495.46207969 -911.65432361 495.45788885 C-893.59264555 495.36398006 -875.53096912 495.26976842 -857.46929646 495.17482758 C-856.31274447 495.16874846 -856.31274447 495.16874846 -855.1328278 495.16254654 C-847.40833257 495.1219399 -839.68383755 495.08129321 -831.95934285 495.04058343 C-816.47359891 494.95898177 -800.98785257 494.87792815 -785.50209618 494.79872131 C-723.49564554 494.48144291 -661.48976743 494.12161946 -599.48415724 493.66662939 C-597.29700401 493.65058322 -595.10985055 493.6345685 -592.92269705 493.61855829 C-564.14304203 493.40771704 -535.36347292 493.18755006 -506.58415222 492.93469238 C-505.59946004 492.92610386 -504.61476785 492.91751533 -503.60023651 492.90866655 C-469.01561854 492.60542479 -434.43801842 492.10333279 -399.8614006 491.29188156 C-397.2965547 491.23210013 -394.73167367 491.17411257 -392.16677856 491.1164856 C-375.37468687 490.73463534 -358.60686989 490.19741407 -341.83984375 489.18359375 C-341.16440332 489.14316011 -340.4889629 489.10272648 -339.79305458 489.06106758 C-301.99022759 486.76098582 -267.04250225 474.72502687 -236.9140625 451.16796875 C-235.4909375 450.06001953 -235.4909375 450.06001953 -234.0390625 448.9296875 C-224.29413918 441.13651729 -214.80533159 432.86389397 -206.9140625 423.16796875 C-206.04823407 422.13797293 -205.182343 421.10802976 -204.31640625 420.078125 C-191.55487353 404.70495976 -180.84505686 387.83264716 -171.15039062 370.38964844 C-170.35149621 368.95403644 -169.54594925 367.52209732 -168.73242188 366.09472656 C-133.98459435 305.09364264 -127.60866783 229.8857555 -118.14164925 161.65272045 C-115.41317675 141.99539358 -112.55936179 122.37437524 -109.23046875 102.80859375 C-109.08880217 101.96980871 -108.94713558 101.13102367 -108.80117607 100.26682091 C-97.43841746 33.29721791 -97.43841746 33.29721791 -71.8046875 14.94140625 C-49.39553935 0.62742884 -25.76667321 0.01039113 0 0 Z " fill="#114C70" transform="translate(1679.9140625,1889.83203125)"/>
</svg>
