<?xml version="1.0" encoding="UTF-8" standalone="no"?>
<!-- Created with Inkscape (http://www.inkscape.org/) -->

<svg
   width="99.970734mm"
   height="25.559971mm"
   viewBox="0 0 99.970734 25.559971"
   version="1.1"
   id="svg1"
   xml:space="preserve"
   xmlns="http://www.w3.org/2000/svg"
   xmlns:svg="http://www.w3.org/2000/svg"><defs
     id="defs1" /><g
     id="g6"
     transform="translate(-45.66449,-113.66964)"><g
       id="layer1"
       style="display:none"><path
         style="display:inline;fill:#0d5b80;fill-opacity:1"
         d="m 54.977751,139.07539 c -0.291392,-0.0833 -0.710492,-0.26293 -0.931333,-0.39911 -0.546048,-0.33673 -0.583926,-0.63646 -0.142219,-1.12538 0.700538,-0.77541 1.793965,-1.09937 5.879022,-1.74183 2.859999,-0.44979 4.286414,-0.87899 4.503301,-1.355 0.153434,-0.33675 -0.01249,-0.39754 -0.947301,-0.34705 -0.840516,0.0454 -5.259941,0.68601 -8.382001,1.215 -1.512598,0.25629 -2.035032,0.30929 -3.090333,0.31352 -1.140294,0.005 -1.319855,-0.015 -1.758154,-0.19198 -0.635575,-0.2566 -0.967768,-0.54402 -1.086402,-0.93998 -0.124081,-0.41415 0.07072,-0.85819 0.507156,-1.15604 0.316193,-0.21579 1.579668,-0.65453 2.783569,-0.96659 0.837901,-0.2172 5.560127,-1.2029 7.090829,-1.48011 1.237347,-0.22409 2.357802,-0.49658 2.821217,-0.68611 0.339889,-0.13901 0.645092,-0.48874 0.578333,-0.66271 -0.06301,-0.1642 -0.744812,-0.30902 -1.712976,-0.36384 -1.338859,-0.0758 -7.553765,0.28805 -9.10196,0.53291 -2.406725,0.38063 -5.761132,0.14889 -6.136467,-0.42395 -0.205849,-0.31416 -0.252094,-0.98826 -0.08938,-1.30291 0.282466,-0.54623 0.587558,-0.64842 4.717447,-1.58015 3.782953,-0.85346 4.596043,-0.99771 6.932459,-1.22993 2.469,-0.2454 4.722051,-0.63303 4.946766,-0.85108 0.106692,-0.10352 -0.170584,-0.3974 -0.564778,-0.59858 -1.130943,-0.57721 -5.295567,-1.03171 -11.536322,-1.259 -2.980538,-0.10855 -3.970245,-0.34404 -4.324418,-1.02893 -0.190654,-0.36869 -0.10292,-0.5867 0.433346,-1.07681 0.378452,-0.34589 0.603968,-0.47224 1.151636,-0.64525 1.775964,-0.56102 5.01588,-0.78629 12.68777,-0.88216 4.736535,-0.0592 5.334,-0.0962 5.334,-0.33085 0,-0.0401 -0.317852,-0.15146 -0.706338,-0.24737 -1.934077,-0.47747 -3.531768,-1.72145 -3.91821,-3.05076 -0.109477,-0.37658 -0.117344,-0.53066 -0.04024,-0.78801 0.0988,-0.32976 0.516426,-0.75571 0.740936,-0.75571 0.06994,0 0.933788,0.18809 1.91967,0.41798 0.985883,0.22989 2.338184,0.51683 3.005115,0.63765 0.666931,0.12081 1.828981,0.35396 2.582334,0.5181 3.603426,0.78514 5.014851,1.24868 9.456901,3.10586 2.623833,1.097 3.54292,1.42499 4.824497,1.72168 1.667081,0.38595 5.118493,0.4525 10.922001,0.21059 3.867986,-0.16123 6.131216,-0.25971 8.805336,-0.38314 1.46685,-0.0677 3.40995,-0.14668 4.318,-0.17549 0.90805,-0.0288 2.31775,-0.10552 3.13266,-0.17046 7.21387,-0.57489 11.14729,-0.71876 17.06034,-0.62399 4.40537,0.0706 7.17322,0.20936 9.906,0.49662 0.88476,0.093 2.14542,0.16958 2.80145,0.17018 0.65604,5.9e-4 2.11336,0.0262 3.2385,0.057 l 2.04571,0.0559 v 7.50424 7.50424 l -0.8255,-0.10316 c -0.45402,-0.0567 -1.4732,-0.14218 -2.26483,-0.18988 -1.43825,-0.0867 -1.60685,-0.0822 -9.06268,0.23894 -4.62475,0.1992 -7.12818,0.20237 -9.69099,0.0123 -1.32715,-0.0984 -3.0607,-0.25224 -3.85233,-0.34177 -0.79163,-0.0895 -2.18228,-0.22232 -3.09033,-0.29509 -0.90805,-0.0728 -2.8321,-0.22734 -4.27567,-0.34349 -3.08488,-0.2482 -8.53748,-0.53213 -10.87967,-0.56653 -2.716119,-0.0399 -13.855738,0.10257 -14.858996,0.19002 -4.112483,0.35848 -4.554747,0.45693 -7.731912,1.72114 -2.61887,1.04206 -3.721318,1.41957 -5.306756,1.8172 -2.75099,0.68994 -5.461732,1.09464 -11.726333,1.75065 -0.721784,0.0756 -1.483784,0.17533 -1.693334,0.22165 -0.20955,0.0463 -0.969251,0.15763 -1.688225,0.24735 -1.643164,0.20506 -2.991883,0.2049 -3.709911,-4.4e-4 z"
         id="path1" /></g><g
       id="layer2"
       style="display:none"><path
         style="display:inline;fill:#6a9ab2;fill-opacity:1"
         d="m 70.156494,136.54677 c -0.102079,-0.123 -0.07073,-0.176 0.262976,-0.4445 0.20838,-0.16767 0.702855,-0.64776 1.098833,-1.06686 0.395978,-0.4191 1.063549,-1.09812 1.48349,-1.50893 l 0.76353,-0.74692 -0.452619,0.2233 c -0.783649,0.38661 -1.61489,0.55088 -2.78759,0.55088 -0.971652,0 -1.129973,0.0237 -2.023659,0.30267 -0.913077,0.28503 -0.98156,0.29478 -1.176002,0.16738 -0.241298,-0.15811 -0.269756,-0.42514 -0.0583,-0.54705 0.107705,-0.0621 -0.02524,-0.0806 -0.486834,-0.0677 -1.212843,0.0338 -1.487247,-0.24439 -0.416775,-0.42257 1.185992,-0.19741 1.928692,-0.4861 2.566224,-0.99751 0.320714,-0.25726 0.701714,-0.54028 0.846667,-0.62892 0.339583,-0.20766 1.674524,-0.70485 2.751627,-1.02484 0.915163,-0.27187 1.662883,-0.58724 3.576608,-1.50851 1.701308,-0.81901 2.002211,-0.90144 3.290983,-0.90155 0.788861,-7e-5 1.295376,0.0504 1.989302,0.19826 0.55918,0.11914 1.078856,0.18169 1.301285,0.15661 0.20865,-0.0235 0.707801,0.0296 1.143365,0.12156 2.966072,0.62652 4.96702,0.8861 8.393048,1.08884 2.171197,0.12847 3.238352,0.23025 3.907639,0.37268 0.333102,0.0709 1.133202,0.17025 1.778,0.2208 2.901158,0.22743 5.387408,0.5754 7.818698,1.09428 1.42541,0.3042 3.47764,0.58898 4.91067,0.68142 0.76835,0.0496 1.83515,0.14574 2.37067,0.21371 0.53551,0.068 1.38918,0.16178 1.89704,0.20846 0.50787,0.0467 0.94284,0.10432 0.96662,0.1281 0.14427,0.14428 -0.32928,0.12416 -2.62841,-0.11165 -1.40998,-0.14461 -3.07383,-0.30419 -3.69746,-0.35462 -1.09782,-0.0888 -3.20724,-0.43976 -5.30079,-0.88201 -1.1352,-0.2398 -3.6869,-0.56342 -6.053676,-0.76777 -0.861484,-0.0744 -1.846364,-0.1928 -2.188624,-0.26315 -0.707372,-0.14541 -1.850888,-0.2524 -3.992043,-0.37353 -3.217837,-0.18204 -5.971193,-0.55866 -8.911167,-1.21891 -0.243706,-0.0547 -0.170458,0.1938 0.106811,0.36242 0.140238,0.0853 0.568863,0.21876 0.9525,0.29662 1.106866,0.22464 5.061768,0.96673 5.481189,1.02848 0.20955,0.0309 0.66675,0.12686 1.016,0.21334 1.718999,0.42566 5.32441,1.08478 6.270656,1.14636 0.392889,0.0256 0.961994,0.0815 1.264678,0.12439 0.302683,0.0429 0.784834,0.0787 1.071446,0.0796 0.704217,0.002 2.51437,0.21846 4.00856,0.47877 4.20081,0.73182 4.33495,0.74188 10.07533,0.75581 4.25241,0.0103 5.33802,0.0373 6.39234,0.15899 1.8987,0.21911 6.95758,0.22912 9.18633,0.0182 0.90805,-0.0859 1.66687,-0.17166 1.68628,-0.1905 0.0194,-0.0188 -0.3997,-0.036 -0.93134,-0.0381 -3.4328,-0.0136 -7.26038,-0.0926 -7.90927,-0.16322 -0.4191,-0.0456 -1.46685,-0.12272 -2.32834,-0.17131 -4.67574,-0.26371 -7.21252,-0.72578 -10.0675,-1.83378 -4.36581,-1.69434 -8.41,-2.88151 -10.760503,-3.15874 -0.395817,-0.0467 -1.100667,-0.14148 -1.566333,-0.21065 -0.465667,-0.0692 -1.211525,-0.12698 -1.657462,-0.12846 -0.445938,-0.001 -1.207938,-0.0387 -1.693334,-0.0827 -0.485396,-0.044 -1.434988,-0.12296 -2.110205,-0.17552 -1.833989,-0.14275 -3.722843,-0.38606 -4.910666,-0.63256 -0.582084,-0.1208 -1.477434,-0.29216 -1.989667,-0.3808 -0.512233,-0.0886 -1.169644,-0.23553 -1.460911,-0.32641 -0.291268,-0.0909 -0.550692,-0.13108 -0.576497,-0.0893 -0.278181,0.45011 -3.195131,-0.9638 -5.074592,-2.45977 -0.650646,-0.51788 -1.810024,-1.69576 -2.679577,-2.72234 -0.482033,-0.56908 -0.971673,-1.14594 -1.08809,-1.28192 -0.174031,-0.20328 -0.253066,-0.23685 -0.4445,-0.1888 -0.196359,0.0493 -0.232833,0.10312 -0.232833,0.34366 0,0.32747 0.277409,1.10551 0.67499,1.89311 0.33134,0.65638 0.575554,1.04167 1.163863,1.83618 0.421113,0.56871 0.530524,0.79459 0.383647,0.79202 -0.06649,-0.001 -0.08703,-0.0288 -0.919867,-1.2384 -1.061396,-1.54153 -1.685789,-3.14617 -1.436747,-3.69232 0.05626,-0.12338 0.02464,-0.14817 -0.188999,-0.14817 -0.388449,0 -0.742964,0.32103 -1.647274,1.4917 -0.941166,1.21838 -2.017012,3.03273 -1.871192,3.15565 0.04065,0.0343 1.064512,0.22437 2.275245,0.42246 2.686569,0.43954 3.684698,0.66955 4.590295,1.05777 0.382596,0.16401 0.973146,0.37974 1.312333,0.47939 0.956141,0.28092 1.79158,0.83635 1.515038,1.00726 -0.06101,0.0377 -0.707198,0.074 -1.435966,0.0807 -0.728768,0.007 -2.582333,0.0728 -4.119033,0.14688 -2.932512,0.1414 -4.349571,0.11355 -5.17995,-0.10181 -0.270994,-0.0703 -0.864192,-0.332 -1.318217,-0.58159 -0.454025,-0.24959 -0.8255,-0.41929 -0.8255,-0.37711 0,0.0422 -0.07385,0.0767 -0.164105,0.0767 -0.09026,0 -0.470306,0.0988 -0.844551,0.21948 -0.669563,0.21597 -0.686573,0.21714 -1.063639,0.0731 -0.301442,-0.11512 -0.553387,-0.13744 -1.180928,-0.10461 -0.862057,0.0451 -1.130655,-0.0237 -0.870392,-0.22295 0.20969,-0.16052 1.907574,-0.71667 2.389697,-0.78275 l 0.394467,-0.0541 -0.749256,-0.36036 c -0.49905,-0.24002 -0.932762,-0.53037 -1.298774,-0.86945 -0.516425,-0.47843 -0.540974,-0.51787 -0.407623,-0.65496 0.134059,-0.13781 0.173255,-0.13075 0.709691,0.12797 0.753777,0.36354 1.396067,0.44863 3.17008,0.41997 0.814916,-0.0132 1.795589,-0.0264 2.179272,-0.0295 0.691668,-0.006 0.698335,-0.008 0.783167,-0.25103 0.04706,-0.13501 0.08556,-0.25883 0.08556,-0.27517 0,-0.0163 -0.153624,-0.0297 -0.341386,-0.0297 -0.484577,0 -0.796079,-0.15686 -1.533557,-0.77223 -0.356002,-0.29705 -0.927502,-0.6925 -1.27,-0.87877 l -0.622724,-0.33867 -1.143,-0.009 c -0.62865,-0.005 -1.46685,-0.0533 -1.862667,-0.10753 -0.395817,-0.0542 -1.053042,-0.12218 -1.4605,-0.15099 -0.407458,-0.0288 -0.740833,-0.0825 -0.740833,-0.11929 0,-0.0853 0.696394,-0.28534 1.566333,-0.44996 0.372533,-0.0705 1.200546,-0.26291 1.840027,-0.42759 1.224731,-0.3154 4.481735,-0.72538 5.762632,-0.72538 0.7842,0 2.187083,0.44081 1.999586,0.62831 -0.02116,0.0212 -0.354753,-0.0735 -0.741326,-0.21026 -0.851444,-0.3013 -1.118391,-0.30723 -3.417732,-0.0759 -2.003921,0.20163 -2.828118,0.34042 -4.039704,0.68028 -0.485384,0.13615 -0.977509,0.24755 -1.093611,0.24755 -0.116102,0 -0.187809,0.0233 -0.159349,0.0517 0.05178,0.0518 0.800217,-0.0338 2.389477,-0.27329 1.122256,-0.1691 2.328076,-0.16975 3.490022,-0.002 1.114906,0.16108 2.426433,0.44335 2.672949,0.57528 0.140699,0.0753 0.195448,0.0628 0.288706,-0.066 0.366596,-0.50613 1.1047,-1.37302 1.318738,-1.54882 0.224199,-0.18415 1.049339,-0.40186 1.148241,-0.30296 0.02079,0.0208 -0.01084,0.0964 -0.07029,0.16806 -0.09295,0.11199 -0.07981,0.12503 0.09377,0.093 0.111026,-0.0205 0.220916,-0.0407 0.244199,-0.0448 0.02328,-0.004 -0.01371,-0.043 -0.08221,-0.0864 -0.0685,-0.0433 -0.09785,-0.10546 -0.06522,-0.13809 0.03263,-0.0326 0.412524,0.0586 0.844214,0.20264 0.431691,0.14407 1.318292,0.3977 1.970225,0.5636 1.321601,0.33633 1.796298,0.54267 2.539726,1.10396 0.311127,0.2349 0.557009,0.36286 0.635,0.33047 0.07,-0.0291 0.316064,-0.10436 0.546808,-0.1673 0.230744,-0.0629 0.527999,-0.19461 0.660567,-0.29262 0.271714,-0.20089 0.673078,-0.2431 0.857353,-0.0902 0.06764,0.0561 0.279852,0.34283 0.471576,0.6371 l 0.34859,0.53504 0.743591,0.0954 c 0.408975,0.0525 1.161031,0.0954 1.671237,0.0954 0.510205,0 2.069725,0.0599 3.465599,0.133 3.131672,0.16412 7.385476,0.20407 7.47264,0.0702 0.202387,-0.31088 0.982457,-0.4302 3.235647,-0.49492 2.838324,-0.0815 5.151064,-0.21907 8.466674,-0.50357 3.83667,-0.3292 8.72699,-0.51702 13.462,-0.51702 3.60258,0 4.44155,0.0288 5.15207,0.17706 0.19536,0.0408 0.30491,0.0249 0.35172,-0.0508 0.11473,-0.18563 3.42679,-0.35212 7.29763,-0.36684 2.25888,-0.009 3.56096,0.0171 3.61524,0.0712 0.0566,0.0564 -0.99314,0.0855 -3.14941,0.0871 -2.96407,0.002 -7.03371,0.15326 -7.34058,0.27248 -0.14237,0.0553 0.75851,0.19005 2.70933,0.40525 1.82375,0.20118 2.43998,0.16304 6.43467,-0.39829 1.64276,-0.23084 3.46183,-0.29461 4.37072,-0.15322 0.65111,0.10129 0.78076,0.15267 0.66849,0.26495 -0.0224,0.0224 -0.29977,-0.003 -0.61629,-0.057 -0.89111,-0.15137 -2.59377,-0.15364 -3.45628,-0.005 -1.39575,0.24115 -4.13281,0.56274 -5.19998,0.61097 -1.13496,0.0513 -3.38847,-0.15821 -6.01133,-0.55883 -0.90055,-0.13755 -5.86866,-0.19173 -8.55133,-0.0933 -3.99975,0.14683 -4.65971,0.17376 -5.37634,0.21939 -0.37253,0.0237 -1.43933,0.0805 -2.37066,0.12621 -0.93134,0.0457 -2.22674,0.13742 -2.87867,0.20385 -2.52212,0.25697 -4.11425,0.3521 -7.239007,0.43256 -1.785176,0.046 -2.965055,0.15495 -3.217334,0.29718 -0.147546,0.0832 0.748886,0.0485 3.894667,-0.15094 3.496884,-0.22165 9.156344,-0.18863 18.669004,0.10891 2.2352,0.0699 4.4831,0.16396 4.99534,0.20898 0.51223,0.045 1.3357,0.0822 1.82994,0.0826 0.49424,4e-4 1.08479,0.0358 1.31233,0.0786 1.58907,0.29915 6.48948,0.37881 8.58459,0.13955 1.34937,-0.1541 3.57745,-0.66181 5.44478,-1.2407 0.85949,-0.26645 1.68725,-0.46075 2.31151,-0.54258 1.05475,-0.13827 2.57251,-0.17122 2.57251,-0.0559 0,0.0394 -0.49266,0.0966 -1.09479,0.12703 -1.59323,0.0806 -2.26329,0.19371 -3.59737,0.60703 -1.80712,0.55988 -4.27024,1.12932 -5.46075,1.26246 -2.33206,0.2608 -6.10257,0.24142 -8.21975,-0.0423 -0.34925,-0.0468 -1.1684,-0.10313 -1.82034,-0.1252 -0.65193,-0.0221 -1.56633,-0.0778 -2.032,-0.12395 -0.97809,-0.0969 -5.01837,-0.22066 -12.36133,-0.37881 -6.73229,-0.14499 -7.12626,-0.14548 -9.35567,-0.0117 -7.239843,0.43454 -7.749533,0.44567 -12.234338,0.26731 l -0.931333,-0.037 0.635,0.11708 c 0.626664,0.11554 1.932121,0.24939 4.995334,0.51218 2.004943,0.17201 3.375903,0.37568 5.037666,0.74841 0.325967,0.0731 1.297521,0.2666 2.159011,0.42998 4.20517,0.79748 5.34711,1.01744 7.06966,1.36169 1.02447,0.20474 2.43417,0.47136 3.13267,0.5925 2.59328,0.44973 3.57655,0.62838 4.37305,0.79452 2.18615,0.45601 6.27913,0.76433 10.18962,0.76759 2.21434,0.002 3.38402,-0.0863 5.08,-0.38267 3.17331,-0.5546 4.13443,-0.79128 5.79966,-1.4282 1.54756,-0.59192 1.83973,-0.72419 3.60429,-1.63181 2.6793,-1.37812 4.12985,-2.07502 4.39671,-2.11236 0.1397,-0.0195 0.34346,-0.0552 0.45279,-0.0792 0.13348,-0.0293 0.18741,-0.01 0.16416,0.0602 -0.019,0.0571 -0.24184,0.14684 -0.49512,0.19936 -0.25327,0.0525 -0.72719,0.23105 -1.05316,0.39673 -0.32597,0.16568 -0.68094,0.32865 -0.78882,0.36216 -0.10789,0.0335 -0.46336,0.21235 -0.78993,0.39741 -0.57754,0.32727 -3.28718,1.69876 -3.88225,1.96501 -0.71501,0.31991 -2.96588,1.13616 -3.429,1.24349 l -0.508,0.11772 0.55033,0.0563 c 0.87279,0.0892 2.5245,0.0839 3.27815,-0.0106 0.8568,-0.10744 1.2619,-0.24755 1.99486,-0.68997 0.3157,-0.19055 1.0396,-0.52754 1.60867,-0.74886 0.56906,-0.22131 1.56161,-0.61631 2.20567,-0.87777 1.20809,-0.49043 1.32665,-0.52638 1.32665,-0.40221 0,0.0402 -0.18097,0.14029 -0.40216,0.22234 -0.22119,0.082 -0.93557,0.36744 -1.5875,0.63421 -0.65194,0.26677 -1.4572,0.58748 -1.78949,0.71269 -0.33228,0.12522 -0.86568,0.38555 -1.18533,0.57852 -0.85281,0.51485 -1.23776,0.63422 -2.49541,0.77383 -0.95445,0.10595 -1.36103,0.10954 -2.57066,0.0227 -1.30381,-0.0936 -1.51915,-0.0888 -2.32522,0.0523 -0.48858,0.0855 -0.90625,0.17339 -0.92814,0.19528 -0.13926,0.13926 0.83808,0.52882 2.65825,1.05954 2.46279,0.71811 4.70909,1.46475 6.223,2.06846 1.49067,0.59444 2.5633,0.91447 3.83116,1.1431 0.31433,0.0567 0.5715,0.13684 0.5715,0.17814 0,0.0962 0.0299,0.0982 -0.89633,-0.0596 l -0.79031,-0.13471 -0.74418,0.34234 c -1.17186,0.5391 -1.56262,0.61693 -3.40104,0.67742 l -1.64086,0.054 -0.021,0.2692 c -0.0473,0.60707 0.87602,1.05385 2.20205,1.06551 0.71348,0.006 0.9028,-0.0216 1.20353,-0.17701 0.35192,-0.1819 1.62955,-1.19378 2.24508,-1.7781 0.31673,-0.30068 0.55619,-0.32341 0.28827,-0.0274 -0.13664,0.151 -0.11726,0.16895 0.46199,0.42795 0.33254,0.14869 0.71446,0.29232 0.84871,0.31917 0.13424,0.0268 0.24408,0.0981 0.24408,0.15841 0,0.14568 -0.41218,0.0319 -1.22327,-0.33775 l -0.6101,-0.27803 -0.92481,0.75934 c -1.24363,1.02112 -1.46508,1.11807 -2.53348,1.10923 -1.06016,-0.009 -1.69972,-0.21392 -2.20119,-0.70607 l -0.34522,-0.33882 -0.92813,0.002 c -0.51047,9.6e-4 -1.49963,0.0576 -2.19813,0.12596 -0.6985,0.0683 -1.5621,0.1247 -1.91911,0.12527 -0.37959,6e-4 -0.66149,0.0382 -0.67892,0.0905 -0.0164,0.0492 -0.39104,0.12511 -0.83256,0.16872 -0.44151,0.0436 -1.45044,0.14567 -2.24208,0.2268 -1.95825,0.20069 -7.34049,0.19424 -9.271,-0.0111 -1.51888,-0.16157 -2.2923,-0.17749 -6.90033,-0.14203 -4.09308,0.0315 -5.62485,-0.0947 -9.69433,-0.79873 -1.52514,-0.26385 -2.34031,-0.36284 -3.852344,-0.46779 -0.651933,-0.0452 -1.509183,-0.11063 -1.905,-0.14528 -0.395817,-0.0346 -0.955187,-0.044 -1.243044,-0.0207 -1.362642,0.11022 -4.065053,-0.13573 -5.65729,-0.51486 -0.528509,-0.12585 -0.996581,-0.16142 -2.130307,-0.16188 l -1.452973,-6e-4 -0.219193,-0.26049 c -0.120557,-0.14327 -0.219193,-0.28903 -0.219193,-0.32391 0,-0.11925 0.400911,-0.44024 0.624564,-0.50006 0.164749,-0.0441 -0.126738,-0.1234 -1.110767,-0.30233 -1.379712,-0.25089 -2.500181,-0.4951 -2.744649,-0.59819 -0.101446,-0.0428 -0.157121,-0.005 -0.200231,0.13736 -0.03284,0.10814 -0.133358,0.27722 -0.223369,0.37573 l -0.163657,0.17911 0.646029,0.0415 c 0.856292,0.0549 1.069179,0.24377 1.123633,0.99659 0.0472,0.65256 -0.02443,0.73602 -0.98498,1.14753 -0.938549,0.40209 -3.1503,1.52618 -4.068235,2.06761 -1.647977,0.97204 -4.46109,1.88545 -6.783672,2.20263 -0.395817,0.0541 -0.933981,0.19083 -1.195921,0.30395 -0.555932,0.24009 -1.01936,0.26591 -1.185241,0.066 z m 2.657657,-1.05206 c 1.069961,-0.5623 2.426536,-1.33528 3.014611,-1.71773 1.14571,-0.74511 1.733881,-1.08517 3.14013,-1.81552 0.490837,-0.25492 1.156207,-0.60101 1.478601,-0.7691 0.715583,-0.37309 2.256136,-1.75865 2.368455,-2.13017 0.06039,-0.19975 0.04303,-0.28767 -0.08467,-0.42893 -0.138822,-0.15356 -0.221808,-0.1705 -0.611372,-0.12479 -0.554036,0.065 -0.923263,0.21498 -1.581253,0.64226 -0.2794,0.18143 -0.6985,0.37098 -0.931333,0.42121 -1.002742,0.21633 -2.961901,1.18097 -4.023747,1.9812 -1.340023,1.00987 -3.493043,3.03256 -4.243563,3.98669 -0.08759,0.11136 -0.349259,0.34194 -0.581477,0.5124 -0.232217,0.17047 -0.422214,0.34479 -0.422214,0.38739 0,0.0426 0.1198,0.0775 0.266222,0.0775 0.176416,0 0.922469,-0.34488 2.211607,-1.02237 z m 0.891219,0.29307 c 2.323942,-0.47799 4.357933,-1.24098 6.068865,-2.27657 0.77704,-0.47032 2.469562,-1.31537 3.407481,-1.70129 1.015292,-0.41776 1.070098,-0.47428 1.011682,-1.04317 -0.06953,-0.67713 -0.211703,-0.78165 -1.11693,-0.82107 l -0.739629,-0.0322 -0.569555,0.53729 c -0.554352,0.52295 -1.31176,0.98324 -2.921961,1.77574 -0.761597,0.37484 -1.877547,1.01984 -2.579492,1.49091 -0.741422,0.49756 -1.823404,1.12649 -2.923842,1.69957 -0.5588,0.291 -1.031875,0.54328 -1.051278,0.5606 -0.09231,0.0824 0.435132,0.0117 1.414659,-0.18979 z m -5.115468,-2.14813 c 0.734688,-0.22433 0.961171,-0.25524 1.87029,-0.25524 0.743997,0 1.213371,-0.0458 1.671981,-0.16307 0.887115,-0.22689 2.170636,-0.89632 3.069211,-1.60077 0.4173,-0.32715 1.08405,-0.77541 1.481667,-0.99613 0.427849,-0.2375 0.860884,-0.55713 1.060891,-0.78306 0.410906,-0.46417 1.423392,-1.13898 1.97011,-1.31306 0.220699,-0.0703 0.648921,-0.15577 0.951604,-0.18999 l 0.550333,-0.0622 -0.677333,-0.11633 c -0.821509,-0.14109 -2.124269,-0.0906 -2.71418,0.10508 -0.230168,0.0764 -1.216189,0.52018 -2.191159,0.98624 -0.97497,0.46607 -2.13702,0.96184 -2.582334,1.10171 -2.936673,0.92237 -3.499074,1.21839 -4.937,2.59854 -0.742553,0.71272 -0.82329,0.81807 -0.697481,0.91006 0.07825,0.0572 0.186201,0.0882 0.239883,0.0688 0.05368,-0.0194 0.473765,-0.15014 0.933517,-0.29052 z m -0.787172,-0.64676 0.205259,-0.22218 -0.211667,0.0686 c -0.116416,0.0377 -0.497416,0.13441 -0.846666,0.21482 l -0.635,0.1462 0.641408,0.007 c 0.588376,0.007 0.658379,-0.011 0.846666,-0.21482 z m 66.6686,-0.4932 c 0.79163,-0.0743 1.90605,-0.13818 2.4765,-0.1419 0.57044,-0.004 1.03716,-0.0188 1.03716,-0.0335 0,-0.12901 -0.69876,-0.3911 -1.35466,-0.5081 -1.40643,-0.25087 -2.29364,-0.53905 -6.87644,-2.23353 -1.52356,-0.56334 -2.80657,-1.02425 -2.85114,-1.02425 -0.0446,0 -0.95067,-0.28316 -2.01356,-0.62924 -1.06289,-0.34609 -2.06588,-0.6513 -2.22886,-0.67825 -0.16299,-0.0269 -0.98214,-0.0849 -1.82034,-0.12876 -1.69506,-0.0887 -3.70948,-0.32934 -4.99533,-0.59672 -2.21324,-0.46023 -2.47581,-0.48806 -3.86003,-0.40904 -0.71755,0.041 -2.08569,0.18823 -3.0403,0.32727 -4.81346,0.70106 -6.34082,0.74304 -9.410181,0.25863 -0.756351,-0.11937 -1.702883,-0.17974 -3.416826,-0.21794 -5.658818,-0.12612 -5.976476,-0.16043 -10.922,-1.18 -2.104447,-0.43385 -2.294291,-0.46006 -2.390399,-0.33006 -0.07213,0.0976 -0.07761,0.17349 -0.01773,0.24565 0.102634,0.12367 1.149713,0.41273 1.984793,0.54794 0.325966,0.0528 1.145116,0.20915 1.820333,0.3475 1.941584,0.39782 5.275126,0.74783 8.763,0.92008 0.8382,0.0414 1.77165,0.11612 2.074334,0.16607 0.302683,0.0499 0.874183,0.12696 1.27,0.17114 2.222326,0.24803 6.452886,1.49966 11.006676,3.25634 1.36905,0.52814 2.24837,0.78142 3.81,1.09748 1.23125,0.24919 3.81282,0.5243 5.63033,0.6 0.6985,0.0291 1.55575,0.0899 1.905,0.13518 0.34925,0.0452 1.37795,0.105 2.286,0.13277 0.90805,0.0278 1.66618,0.0638 1.68473,0.08 0.0185,0.0162 1.82829,0.014 4.02166,-0.005 2.74169,-0.0238 4.43774,-0.0768 5.42728,-0.16971 z m 6.61849,-0.72761 c 0.38051,-0.047 0.90299,-0.15818 1.16106,-0.24697 0.57562,-0.19804 1.32211,-0.53625 1.32211,-0.599 0,-0.0255 -0.25717,-0.11451 -0.5715,-0.19789 -0.31432,-0.0834 -1.12395,-0.38236 -1.79916,-0.66439 -1.17214,-0.48958 -3.85607,-1.39181 -5.75734,-1.93538 -1.64102,-0.46917 -2.96335,-0.94764 -3.18394,-1.15207 -0.23601,-0.21873 -0.1868,-0.21933 -1.51506,0.0185 -1.26503,0.2265 -2.45058,0.30146 -4.78366,0.30245 l -2.32834,9.9e-4 0.71967,0.25295 c 0.39582,0.13912 1.40479,0.46557 2.24217,0.72546 0.83737,0.25988 1.63747,0.52376 1.778,0.5864 0.34018,0.15163 3.69824,1.3899 5.0815,1.87378 1.4513,0.50769 2.02318,0.67041 3.08897,0.87893 0.4882,0.0955 0.93303,0.19914 0.9885,0.23028 0.14469,0.0812 2.73773,0.0273 3.55702,-0.074 z m -47.131497,-0.5515 c -0.814917,-0.15966 -2.072217,-0.42263 -2.794,-0.58439 -3.302004,-0.74001 -5.045843,-0.71859 -4.347211,0.0534 0.125229,0.13837 0.29236,0.15483 1.572449,0.15483 1.211574,0 1.571662,0.0317 2.336378,0.20549 0.770221,0.17508 1.608631,0.29987 2.766717,0.4118 0.1397,0.0135 0.635001,0.0301 1.100667,0.0369 l 0.846667,0.0123 z m -14.524601,-1.78144 c 0.322725,-0.0811 0.786071,-0.2853 1.08373,-0.47769 0.285985,-0.18484 0.598249,-0.36778 0.693921,-0.40652 0.161322,-0.0653 0.158583,-0.0707 -0.03772,-0.0741 -0.510908,-0.009 -1.395578,0.18017 -1.798622,0.3844 -0.487657,0.24712 -1.205498,0.75943 -1.453983,1.03768 -0.145694,0.16315 -0.105515,0.15598 0.393321,-0.0702 0.305575,-0.13856 0.809282,-0.31565 1.11935,-0.39353 z m 26.970608,-2.82211 c 0.72178,-0.0921 1.9447,-0.26208 2.71761,-0.37769 0.7729,-0.11561 1.8397,-0.23854 2.37067,-0.27319 l 0.96538,-0.063 -0.889,-0.15374 c -1.4737,-0.25485 -2.29799,-0.41269 -2.90645,-0.55657 -0.4094,-0.0968 -0.59481,-0.10968 -0.63533,-0.0441 -0.0315,0.0509 -0.34282,0.13082 -0.69189,0.17754 -0.34906,0.0467 -0.78706,0.12429 -0.97333,0.17237 -0.54364,0.14033 -3.91635,0.59371 -6.13833,0.82515 -0.90724,0.0945 -0.935003,0.16215 -0.11676,0.28451 1.94994,0.29157 4.0583,0.29449 6.29743,0.009 z M 74.146323,126.2705 c 0.861483,-0.0425 2.154335,-0.0836 2.873004,-0.0915 0.718669,-0.008 1.403996,-0.0403 1.522948,-0.0721 0.210854,-0.0564 0.206751,-0.0633 -0.163672,-0.27744 -0.208971,-0.12077 -0.633822,-0.29687 -0.944113,-0.39133 -0.310291,-0.0945 -0.887367,-0.30554 -1.28239,-0.46906 -1.027367,-0.42528 -1.703674,-0.57953 -4.875563,-1.11204 l -2.821728,-0.47372 -1.26128,0.093 c -0.905143,0.0668 -1.56589,0.0674 -2.340077,0.002 -1.177318,-0.099 -1.443645,-0.16258 -2.012777,-0.48067 -0.208094,-0.11631 -0.378353,-0.17364 -0.378353,-0.12741 0,0.19671 0.938898,0.91223 1.608667,1.22594 0.395817,0.1854 1.373201,0.69403 2.171966,1.13031 0.798764,0.43627 1.617914,0.85359 1.820333,0.92736 0.779851,0.28422 2.147069,0.31034 6.083035,0.11623 z m 27.512767,-0.29734 c 2.87754,-0.35127 4.2258,-0.55427 5.25324,-0.79094 0.20955,-0.0483 0.5334,-0.0919 0.71966,-0.097 0.44095,-0.012 -0.38554,-0.18185 -6.39233,-1.31359 -0.86149,-0.16231 -1.890187,-0.3683 -2.286003,-0.45776 -1.93212,-0.43667 -3.705625,-0.66967 -6.477001,-0.85092 -1.671625,-0.10932 -2.377768,-0.19577 -4.318,-0.52862 -2.528312,-0.43374 -4.011852,-0.35283 -4.400279,0.23999 -0.174155,0.26579 -0.12109,0.43071 0.302288,0.9395 0.186242,0.22381 0.64702,0.78722 1.023952,1.25202 l 0.685329,0.8451 0.855689,0.19301 c 2.483461,0.56019 4.328783,0.77129 7.290263,0.83399 1.25725,0.0266 2.301825,0.0643 2.321278,0.0838 0.01945,0.0194 0.539735,0.0354 1.156181,0.0354 0.810811,0 1.99065,-0.10619 4.265733,-0.38392 z m -36.588451,-0.42042 c 0.33321,-0.11641 0.692277,-0.21225 0.797927,-0.21297 0.131279,-9e-4 0.0045,-0.10397 -0.400577,-0.32559 -0.325967,-0.17834 -0.611717,-0.30031 -0.635,-0.27103 -0.02328,0.0293 -0.289983,0.10268 -0.592667,0.16312 -0.302683,0.0605 -0.855133,0.21158 -1.227666,0.33586 l -0.677334,0.22595 0.846667,0.0469 c 0.465667,0.0258 0.922867,0.0913 1.016,0.14559 0.222088,0.12947 0.177905,0.13492 0.87265,-0.10781 z m 17.486687,-0.50652 c 0.133558,-0.97442 -0.08576,-1.27533 -2.456269,-3.37002 -1.947729,-1.7211 -2.172283,-1.84759 -4.225717,-2.38028 -0.79529,-0.20631 -1.591715,-0.436 -1.769833,-0.51042 -0.178118,-0.0744 -0.334593,-0.12457 -0.347722,-0.11144 -0.0233,0.0233 0.132558,0.20878 1.697982,2.02071 1.724643,1.99621 4.018301,3.70813 5.956231,4.44555 1.007574,0.3834 1.080702,0.37739 1.145328,-0.0941 z m 2.537781,-0.39372 c -0.224281,-0.28558 -0.630587,-0.77136 -0.902901,-1.0795 -0.272314,-0.30814 -0.54713,-0.66041 -0.610702,-0.78283 -0.12816,-0.24679 -0.430396,-0.4227 -0.345316,-0.20098 0.06446,0.16799 -0.06111,0.48818 -0.372248,0.94921 -0.232765,0.34489 -0.244545,0.39847 -0.160768,0.73117 l 0.0904,0.35902 1.243208,0.26345 c 0.683765,0.14489 1.293362,0.2671 1.35466,0.27157 0.0613,0.004 -0.07205,-0.22552 -0.296334,-0.51111 z m -2.310919,-1.31766 c 0.339101,-0.53471 0.322492,-0.74834 -0.09757,-1.25498 -0.192339,-0.23198 -0.574322,-0.75516 -0.84885,-1.16262 -0.547202,-0.81216 -0.714074,-0.89602 -1.159039,-0.58246 -0.123605,0.0871 -0.443812,0.22151 -0.71157,0.2987 -0.267758,0.0772 -0.486833,0.16908 -0.486833,0.20422 0,0.0351 0.371475,0.38488 0.8255,0.7772 0.454025,0.39233 1.1303,1.026 1.502833,1.40816 0.372533,0.38216 0.687698,0.6981 0.700365,0.70209 0.01267,0.004 0.136492,-0.17165 0.275167,-0.39031 z m -13.210807,-1.1476 c 0.109766,-0.1979 0.38367,-0.63461 0.608676,-0.97046 0.483503,-0.72168 0.50723,-0.68849 -0.681477,-0.95327 -1.90134,-0.42351 -3.719129,-0.53291 -5.090924,-0.30638 -0.395817,0.0654 -1.135233,0.16851 -1.643147,0.22921 -1.031114,0.12324 -0.991356,0.15435 0.422537,0.33063 0.658826,0.0821 0.948756,0.0839 1.27,0.008 0.328248,-0.0777 0.506665,-0.0748 0.843715,0.0137 0.585103,0.15361 1.472564,0.66441 2.144123,1.23411 0.711738,0.60379 1.050429,0.77443 1.537083,0.77443 0.370886,0 0.399544,-0.0175 0.589414,-0.35984 z m 14.015173,-0.0672 c 0.07329,-0.14171 0.233393,-0.3033 0.355793,-0.35907 0.200804,-0.0915 0.140437,-0.11097 -0.617906,-0.19937 -0.462248,-0.0539 -0.85171,-0.0874 -0.865471,-0.0745 -0.06258,0.0587 0.63627,0.79492 0.787019,0.82914 0.09313,0.0211 0.17788,0.0436 0.188326,0.05 0.01045,0.006 0.07895,-0.10442 0.152239,-0.24614 z m -21.826496,-1.99478 c -0.02813,-0.0281 -0.101159,-0.0311 -0.162278,-0.007 -0.06754,0.027 -0.04748,0.0471 0.05115,0.0512 0.08925,0.004 0.139259,-0.0163 0.111125,-0.0445 z m 2.510847,9.94137 c -0.09677,-0.15658 1.245552,-1.3752 1.940695,-1.76184 0.334981,-0.18632 0.913856,-0.45691 1.286389,-0.60131 0.372533,-0.14439 0.715433,-0.29325 0.762,-0.3308 0.191647,-0.15452 1.092235,-0.33732 2.32409,-0.47175 1.04768,-0.11433 1.738741,-0.13228 3.471333,-0.0902 3.501791,0.0851 4.745577,0.21149 4.745577,0.48218 0,0.0817 -0.223667,0.1648 -0.443812,0.1648 -0.09678,0 -0.522289,0.18607 -0.945576,0.41349 -0.820932,0.44106 -2.741487,1.28421 -3.755494,1.64872 -1.68108,0.6043 -3.40601,0.72874 -4.98891,0.3599 -1.222811,-0.28493 -1.7945,-0.27889 -3.145206,0.0332 -1.273609,0.2943 -1.17182,0.28181 -1.251086,0.15355 z m 1.394842,-0.37353 c 0.77704,-0.18973 1.01732,-0.21329 1.747575,-0.17135 0.465667,0.0267 1.151467,0.12543 1.524,0.21931 1.248015,0.31451 2.932494,0.19266 4.445001,-0.32154 1.048238,-0.35637 2.876056,-1.14648 3.870537,-1.67311 0.475679,-0.2519 0.929704,-0.458 1.008944,-0.458 0.333071,0 0.0064,-0.10318 -0.407329,-0.12867 -0.247767,-0.0153 -1.196945,-0.0742 -2.109285,-0.13094 -2.752541,-0.17123 -6.338681,0.0244 -7.061868,0.38524 -0.1397,0.0697 -0.6024,0.26101 -1.028223,0.42512 -0.425822,0.16411 -1.03175,0.4407 -1.346505,0.61465 -0.583761,0.32261 -1.867629,1.44926 -1.658847,1.45571 0.0633,0.002 0.5205,-0.0954 1.016,-0.21642 z m 11.653576,-5.00305 c -0.884812,-0.62221 -2.33879,-2.08656 -2.953721,-2.9748 -0.477529,-0.68976 -1.067946,-1.80834 -1.067946,-2.02328 0,-0.24184 0.138156,-0.0805 0.324229,0.37873 0.555112,1.36988 2.433479,3.55922 3.866771,4.50694 0.832247,0.55029 0.882943,0.59483 0.6731,0.59141 -0.09081,-0.001 -0.4699,-0.21703 -0.842433,-0.479 z"
         id="path2" /></g><g
       id="layer3"
       style="display:inline"><path
         style="display:inline;fill:#0e1f3c;fill-opacity:1"
         d="m 80.216474,129.43689 c -1.46792,-0.27738 -3.017138,-1.0655 -3.957235,-2.01314 -0.935382,-0.94289 -1.433169,-1.96168 -1.589501,-3.25314 -0.26644,-2.20106 0.512749,-3.72282 2.39474,-4.67694 0.677961,-0.3437 0.80695,-0.37927 1.494987,-0.41216 0.945472,-0.0452 1.572577,0.0607 3.223342,0.54421 1.083875,0.31749 1.651337,0.55166 3.259667,1.34514 2.855485,1.40877 3.566859,1.6687 5.434423,1.98569 3.116373,0.52894 4.473808,1.54713 4.320255,3.24055 -0.04965,0.54751 -0.393416,1.22107 -0.702479,1.3764 -0.09376,0.0471 -0.321006,0.20427 -0.504999,0.34923 -0.960324,0.75661 -2.240073,1.07946 -4.652533,1.17372 -2.259392,0.0883 -4.215477,0.22417 -4.995334,0.34701 -0.937836,0.14772 -2.927381,0.14422 -3.725333,-0.007 z"
         id="path4" /><path
         style="display:inline;fill:#ffffff"
         d="m 123.21276,132.65356 c -2.44916,-0.15234 -6.43655,-0.46925 -8.84767,-0.70319 -1.28686,-0.12486 -2.61184,-0.48565 -5.16467,-1.40632 -0.86148,-0.3107 -1.83303,-0.65343 -2.159,-0.76164 -1.34091,-0.44511 -5.46321,-1.74134 -6.05366,-1.90354 -1.245842,-0.34222 -3.354752,-0.67133 -4.885027,-0.76233 -0.829021,-0.0493 -2.046108,-0.12982 -2.70464,-0.17892 -0.658531,-0.0491 -1.515781,-0.0878 -1.905,-0.0861 -1.270737,0.006 -3.719897,-0.35615 -6.80367,-1.00518 -0.4191,-0.0882 -1.074747,-0.22485 -1.456994,-0.30365 -0.382246,-0.0788 -0.810871,-0.21375 -0.9525,-0.29988 -0.444754,-0.27047 -0.266831,-0.66709 0.299256,-0.66709 0.126076,0 0.766756,0.13116 1.423733,0.29146 3.531397,0.86167 5.201094,1.10579 8.391171,1.22685 1.303867,0.0495 2.808817,0.12719 3.344334,0.17269 4.555327,0.38707 6.858547,0.45967 9.440337,0.29757 3.22337,-0.20238 4.00537,-0.27854 5.25812,-0.51209 0.6471,-0.12063 1.34803,-0.24735 1.55764,-0.2816 0.40793,-0.0666 1.66445,0.0906 3.21724,0.40257 2.09643,0.42123 2.63464,0.51177 3.556,0.59822 2.79947,0.26267 3.72542,0.36133 4.14866,0.44204 0.50826,0.0969 4.41423,1.38661 7.44444,2.45804 1.05118,0.37167 2.54457,0.89875 3.31866,1.17127 0.77408,0.27253 1.87479,0.59419 2.44602,0.7148 1.15964,0.24484 1.54249,0.4177 1.50496,0.67952 -0.0234,0.16324 -0.0861,0.17033 -1.50608,0.17033 -1.48365,0 -5.35591,0.13845 -8.2981,0.29671 -1.85249,0.0996 -2.27321,0.095 -4.61356,-0.0505 z"
         id="path3" /></g><g
       id="layer5"
       style="display:none"><path
         style="display:inline;fill:#0e1f3c;fill-opacity:1"
         d="m 72.896918,136.91316 c -0.03636,-0.0582 -0.07551,-0.14394 -0.087,-0.1905 -0.01149,-0.0466 -0.101939,-0.31322 -0.201002,-0.59255 -0.09906,-0.27934 -0.200094,-0.77464 -0.224513,-1.10067 -0.03737,-0.49888 -0.0077,-0.70008 0.187029,-1.27012 0.343039,-1.00399 0.68328,-1.58984 1.27632,-2.19766 1.107436,-1.13502 2.929479,-2.24317 4.021798,-2.44602 0.198239,-0.0368 0.680374,0.0407 1.51816,0.24414 1.659919,0.40305 2.55256,0.4494 4.148667,0.21542 0.684472,-0.10033 2.089285,-0.21615 3.175,-0.26175 1.071033,-0.045 2.633133,-0.1268 3.471333,-0.18182 2.045722,-0.13428 3.017303,-0.12265 3.71182,0.0445 0.634909,0.15276 3.342693,1.14878 3.95176,1.4536 1.079705,0.54035 1.927235,1.46551 2.009268,2.19329 0.038,0.33717 0.02337,0.3858 -0.11567,0.38433 -1.144539,-0.0121 -11.759633,0.0989 -12.732178,0.13304 -1.477109,0.0519 -3.240624,0.23593 -4.064,0.42407 -0.83228,0.19018 -2.002983,0.58962 -3.598334,1.22773 -2.538972,1.01555 -3.943715,1.51803 -4.963521,1.77549 -1.093853,0.27616 -1.385467,0.30474 -1.484935,0.14552 z"
         id="path6" /><path
         style="display:inline;fill:#ffffff"
         d="m 92.830162,131.41864 c -0.675217,-0.0616 -1.627717,-0.17713 -2.116667,-0.25682 -0.48895,-0.0797 -1.559593,-0.16774 -2.379206,-0.19566 -1.534748,-0.0523 -1.769461,-0.10844 -1.769461,-0.4233 0,-0.29332 0.24981,-0.51654 0.576301,-0.51496 0.600687,0.003 4.130085,0.50758 5.011699,0.71664 0.48895,0.11595 1.3843,0.28979 1.989667,0.3863 0.605367,0.0965 1.386417,0.22656 1.735667,0.28899 l 0.635,0.11349 -1.227667,-0.001 c -0.675217,-7.5e-4 -1.780117,-0.0517 -2.455333,-0.1133 z"
         id="path5" /></g></g></svg>
