<svg width="1080" height="1080" viewBox="0 0 1080 1080" fill="none" xmlns="http://www.w3.org/2000/svg">
<path d="M151 770V453C151 411.579 184.579 378 226 378H314.043C338.187 378 360.854 366.377 374.945 346.773L399.055 313.227C413.146 293.623 435.813 282 459.957 282H603.231C625.57 282 646.747 291.958 660.995 309.164L695.505 350.836C709.753 368.042 730.93 378 753.269 378H853C894.421 378 928 411.579 928 453V770C928 811.421 894.421 845 853 845H226C184.579 845 151 811.421 151 770Z" stroke="white" stroke-width="55" stroke-linecap="round"/>
<circle cx="539.5" cy="599.5" r="139.5" stroke="white" stroke-width="48"/>
<circle cx="827.5" cy="471.5" r="22.5" stroke="white" stroke-width="27"/>
</svg>
