<svg width="1080" height="1080" viewBox="0 0 1080 1080" fill="none" xmlns="http://www.w3.org/2000/svg">
<path d="M151 746V429C151 387.579 184.579 354 226 354H314.043C338.187 354 360.854 342.377 374.945 322.773L399.055 289.227C413.146 269.623 435.813 258 459.957 258H603.231C625.57 258 646.747 267.958 660.995 285.164L695.505 326.836C709.753 344.042 730.93 354 753.269 354H853C894.421 354 928 387.579 928 429V746C928 787.421 894.421 821 853 821H226C184.579 821 151 787.421 151 746Z" stroke="white" stroke-width="55" stroke-linecap="round"/>
<circle cx="539.5" cy="575.5" r="139.5" stroke="white" stroke-width="48"/>
<circle cx="827.5" cy="447.5" r="22.5" stroke="white" stroke-width="27"/>
</svg>
