<svg width="1080" height="1080" viewBox="0 0 1080 1080" fill="none" xmlns="http://www.w3.org/2000/svg">
<rect x="119" y="119" width="841" height="841" stroke="white"/>
<path d="M574.542 126.542C591.396 126.542 606.827 132.542 618.955 144.671C631.083 156.799 637.084 172.23 637.084 189.084V476.959H652.167V259.167C652.167 242.313 658.168 226.882 670.296 214.754C682.424 202.626 697.855 196.625 714.709 196.625C731.562 196.625 746.993 202.626 759.121 214.754C771.249 226.882 777.25 242.313 777.25 259.167V472.053C792.643 463.649 809.914 459.437 828.594 459.437H882.375V627.104C882.375 717.213 850.65 794.618 787.593 857.675C724.535 920.733 647.13 952.459 557.021 952.459C466.912 952.459 389.507 920.733 326.449 857.675C263.391 794.618 231.667 717.213 231.667 627.104V294.209L231.672 293.42C231.856 276.873 237.857 261.734 249.796 249.796C261.924 237.667 277.355 231.667 294.209 231.667C311.062 231.667 326.493 237.668 338.621 249.796C350.749 261.924 356.75 277.355 356.75 294.209V476.959H371.834V224.125C371.834 207.271 377.835 191.841 389.963 179.713C402.091 167.585 417.521 161.584 434.375 161.584C451.229 161.584 466.66 167.584 478.788 179.713C490.916 191.841 496.917 207.271 496.917 224.125V476.959H512V189.084C512 172.23 518.001 156.799 530.129 144.671C542.257 132.542 557.688 126.542 574.542 126.542Z" stroke="white" stroke-width="55"/>
</svg>
